<svg xmlns="http://www.w3.org/2000/svg" viewBox="0 0 135.76 106.92">
  <g data-name="Layer 1">
    <path
      fill="var(--text-color)"
      d="M129.76 6v61.96H82.22l-1.66 1.36-27.08 22.21 3.38-16.35 1.49-7.21H6V6h123.76m6-6H0v73.96h50.99l-6.81 32.96 40.19-32.96h51.39V0Z" />
    <path
      fill="var(--text-color)"
      d="M40.1 47.98V29.39h-5.14v-2.05h12.58v2.05H42.4v18.59h-2.3Zm18.06.22c-.54 0-1.09-.05-1.64-.14-.55-.09-1.08-.26-1.57-.51s-.94-.56-1.35-.94c-.4-.38-.73-.82-.98-1.32s-.43-1.02-.53-1.56-.15-1.1-.15-1.66v-2.81c0-.54.05-1.09.14-1.64.09-.55.27-1.07.52-1.56s.58-.93.98-1.32.85-.71 1.33-.95 1.01-.41 1.56-.51 1.1-.14 1.64-.14 1.09.05 1.64.14 1.07.26 1.56.51c.49.24.93.56 1.33.95.4.39.73.83.98 1.32.25.49.43 1.01.52 1.56.09.55.14 1.1.14 1.64v2.44H54.25v.36c0 .36.03.71.08 1.07.06.36.16.69.31 1.01.15.32.35.61.6.88s.53.49.84.65c.31.16.64.27 1 .34.35.07.71.1 1.07.1.41 0 .81-.03 1.21-.08.39-.06.77-.17 1.14-.34.37-.17.68-.41.94-.73.26-.32.41-.68.45-1.09h2.33c-.04.47-.15.92-.32 1.35-.18.43-.42.82-.72 1.17s-.65.64-1.04.88-.81.44-1.25.58c-.44.14-.89.23-1.35.28-.46.05-.92.07-1.39.07Zm-3.9-8.57h7.7v-.37c0-.35-.03-.71-.08-1.05-.06-.35-.16-.68-.31-1.01-.15-.33-.34-.62-.58-.88-.23-.26-.51-.48-.83-.65-.32-.17-.65-.29-1-.37-.35-.07-.7-.11-1.05-.11s-.71.04-1.05.11c-.35.08-.68.2-1 .37-.32.17-.6.38-.83.65-.23.26-.43.56-.58.88-.15.33-.25.67-.31 1.01s-.08.7-.08 1.05v.37Zm15.05 8.35V45.9h4.72V35.42h-4.27v-2.05h6.57V45.9h4.27v2.08H69.31Zm5.65-17.08c-.24 0-.48-.03-.7-.1-.22-.07-.42-.18-.59-.35s-.29-.37-.35-.59-.1-.46-.1-.7.03-.48.1-.7.18-.42.35-.59.36-.29.59-.36c.23-.08.46-.11.7-.11s.48.04.7.11.42.2.59.36c.17.17.29.37.36.59.08.22.11.46.11.7s-.04.48-.11.7c-.07.22-.2.42-.36.59-.17.17-.37.28-.59.35s-.46.1-.7.1Zm15.47 17.3c-.39 0-.79-.03-1.19-.08-.4-.06-.79-.16-1.17-.31-.37-.15-.72-.35-1.04-.6s-.58-.55-.8-.88c-.22-.34-.37-.7-.46-1.1-.09-.39-.14-.79-.14-1.21 0-.52.08-1.03.25-1.53.17-.5.43-.93.79-1.31.35-.38.76-.68 1.22-.91.46-.23.94-.42 1.45-.56.51-.14 1.01-.23 1.53-.28s1.03-.07 1.53-.07h3.03v-1.12c0-.3-.04-.6-.11-.9a2.495 2.495 0 0 0-1-1.44 3.19 3.19 0 0 0-.8-.41c-.28-.09-.57-.16-.87-.2a7.09 7.09 0 0 0-2.12.04c-.4.07-.79.2-1.15.39s-.67.47-.9.83c-.23.36-.35.74-.35 1.15H85.8c0-.47.08-.93.24-1.38.16-.45.38-.86.67-1.22.29-.36.63-.68 1.03-.94.39-.26.81-.47 1.25-.62.44-.15.89-.25 1.36-.31.47-.06.94-.08 1.4-.08.51 0 1.01.03 1.5.1.5.06.97.19 1.43.36.46.18.89.42 1.29.72s.74.66 1.02 1.07c.28.41.48.86.59 1.35.11.49.17.98.17 1.49v9.75h-2.33v-2.53a4.1 4.1 0 0 1-.86 1.22c-.36.37-.77.67-1.22.9-.45.23-.92.4-1.42.49-.5.09-1 .14-1.5.14Zm.87-2.05c.34 0 .67-.03 1.01-.08.34-.06.67-.14.98-.25.32-.11.62-.27.9-.48s.52-.45.72-.73.33-.59.41-.93c.07-.34.11-.67.11-1.01v-1.26H92.4c-.3 0-.61 0-.93.03s-.63.06-.93.13-.6.15-.9.24c-.3.09-.58.23-.84.41-.26.18-.47.41-.62.69-.15.28-.22.57-.22.87 0 .39.1.76.31 1.1.21.34.47.6.8.8.33.2.68.33 1.07.39.38.07.77.1 1.17.1Z" />
  </g>
</svg>