<svg xmlns="http://www.w3.org/2000/svg" data-name="Ebene 2" viewBox="0 0 152.64 100.86">
  <path
    fill="var(--text-color)"
    d="m127.7 19.85.2 24.88 24.74-24.74-24.94-.14zM61.02 50.79c-.11-.24-.25-.45-.42-.64a2.12 2.12 0 0 0-.6-.47 3.13 3.13 0 0 0-.72-.27c-.25-.05-.51-.08-.77-.08s-.51.03-.77.08c-.25.05-.49.14-.72.27-.23.12-.43.28-.6.47-.17.19-.31.41-.42.64-.11.24-.18.48-.22.74-.04.25-.06.51-.06.76v.27h5.59v-.27c0-.26-.02-.51-.06-.76-.04-.25-.12-.5-.22-.74Zm21.73 3.07c-.23.01-.46.04-.67.09-.22.05-.44.11-.65.17-.22.07-.42.17-.61.3-.19.13-.34.3-.45.5s-.16.42-.16.63c0 .29.07.55.22.8s.34.44.58.58c.24.14.5.24.78.29a4.796 4.796 0 0 0 1.58.01c.25-.04.48-.1.71-.18.23-.08.45-.2.65-.35s.38-.33.52-.53.24-.43.3-.67c.05-.24.08-.49.08-.73v-.92h-2.2c-.22 0-.44 0-.67.02Zm25.51 16.76V19.85H82.52V.4L30.69 0 0 30.65V50.1h25.74v50.76h71.05l30.91-30.25h-19.45Zm-38.7-26.18a.96.96 0 0 1 .26-.43c.12-.12.27-.21.43-.26.16-.05.33-.08.51-.08s.35.03.51.08c.16.05.31.14.43.26s.21.27.27.43.08.33.08.51-.03.35-.08.51-.14.31-.27.43a.94.94 0 0 1-.43.25c-.16.05-.33.07-.51.07s-.35-.02-.51-.07c-.16-.05-.31-.13-.43-.25s-.21-.27-.26-.43-.07-.33-.07-.51.02-.35.07-.51Zm-18.72.67h-3.73v13.51h-1.67V45.11h-3.73v-1.49h9.14v1.49ZM63 54.07h-7.28v.26c0 .26.02.52.06.78.04.26.12.5.22.74s.26.45.44.64.39.35.61.47c.22.12.47.2.72.25.26.05.52.07.78.07.3 0 .59-.02.88-.06.29-.04.56-.12.83-.24.27-.12.49-.3.68-.53.19-.23.3-.5.33-.79h1.69c-.03.34-.11.67-.23.98-.13.31-.3.6-.52.85-.22.25-.47.47-.75.64s-.59.32-.91.42c-.32.1-.65.17-.98.2-.33.03-.67.05-1.01.05-.4 0-.79-.03-1.19-.1a4.115 4.115 0 0 1-2.12-1.05c-.29-.28-.53-.6-.71-.96s-.31-.74-.39-1.13c-.08-.39-.11-.8-.11-1.2v-2.04c0-.39.03-.79.1-1.19a3.852 3.852 0 0 1 1.09-2.09c.29-.29.62-.52.97-.69s.73-.3 1.13-.37.8-.1 1.19-.1.79.03 1.19.1a3.946 3.946 0 0 1 2.1 1.06 3.852 3.852 0 0 1 1.09 2.09c.07.4.1.8.1 1.19v1.78Zm11.85 4.55h-8.2v-1.51h3.43V49.5h-3.1v-1.49h4.77v9.1h3.1v1.51Zm12.47 0h-1.69v-1.84c-.15.33-.36.62-.62.89-.27.27-.56.48-.89.65-.33.17-.67.29-1.03.36s-.72.1-1.09.1c-.29 0-.57-.02-.87-.06-.29-.04-.57-.12-.85-.22-.27-.11-.52-.26-.75-.44s-.43-.4-.58-.64c-.16-.24-.27-.51-.34-.8-.07-.29-.1-.58-.1-.88 0-.38.06-.75.18-1.11.12-.36.31-.68.57-.95s.55-.49.89-.66c.33-.17.68-.31 1.05-.41.37-.1.74-.17 1.11-.2s.74-.05 1.11-.05h2.2v-.82c0-.22-.03-.44-.08-.65-.05-.22-.14-.41-.27-.59a2.008 2.008 0 0 0-1.04-.75c-.2-.07-.42-.12-.63-.14-.22-.03-.44-.04-.65-.04-.3 0-.6.02-.89.07-.29.05-.57.14-.84.29-.27.14-.48.34-.65.6-.17.26-.25.54-.25.84h-1.69c0-.34.06-.67.17-1 .12-.33.28-.62.49-.89.21-.26.46-.49.74-.68s.59-.34.91-.45c.32-.11.65-.18.99-.22a8.723 8.723 0 0 1 2.11.01c.36.05.71.14 1.04.26.33.13.65.3.94.52s.54.48.74.78c.2.3.35.63.43.98s.12.71.12 1.08v7.08Z"
    data-name="Layer 1" />
</svg>