<svg xmlns="http://www.w3.org/2000/svg" data-name="Ebene 2" viewBox="0 0 82.64 76.59">
  <g data-name="Layer 1">
    <path fill="none" stroke="var(--text-color)" stroke-miterlimit="10" stroke-width="7"
      d="M41.47 72.96 15.9 65.71v-7.94L3.49 53.89v-41.1L42.12 3.6l37.03 9.2v41.15l-12.41 3.41v8.65l-25.26 6.94Zm-19.42-11.9 19.45 5.51 19.09-5.25v-8.65L73 49.26V17.6L42.09 9.92 9.65 17.64v31.72l12.41 3.88v7.81Z" />
    <path
      fill="var(--text-color)"
      d="M24.74 41.08V30.13h-3.03v-1.21h7.41v1.21h-3.03v10.95h-1.36Zm10.63.13c-.32 0-.64-.03-.97-.08-.33-.06-.63-.15-.93-.3s-.56-.33-.79-.55c-.24-.23-.43-.49-.58-.78s-.25-.6-.31-.92c-.06-.32-.09-.64-.09-.98v-1.65c0-.32.03-.64.08-.97.05-.33.16-.63.31-.92.15-.29.34-.55.58-.78.24-.23.5-.42.79-.56s.59-.24.92-.3c.32-.05.65-.08.97-.08s.64.03.97.08.63.15.92.3c.29.14.55.33.79.56.24.23.43.49.58.78.15.29.25.59.31.92s.08.65.08.97v1.44h-5.9v.21c0 .21.02.42.05.63a2.02 2.02 0 0 0 .54 1.12c.15.16.31.29.5.38.18.09.38.16.59.2.21.04.42.06.63.06.24 0 .48-.02.71-.05.23-.03.45-.1.67-.2.21-.1.4-.24.55-.43s.24-.4.26-.64h1.37a2.61 2.61 0 0 1-.61 1.48c-.18.2-.38.38-.61.52s-.48.26-.74.34c-.26.08-.52.14-.79.17s-.54.04-.82.04Zm-2.3-5.04h4.53v-.21c0-.21-.02-.42-.05-.62s-.09-.4-.18-.6c-.09-.19-.2-.37-.34-.52s-.3-.28-.49-.38c-.19-.1-.38-.17-.59-.21s-.41-.07-.62-.07-.42.02-.62.07-.4.12-.59.21c-.19.1-.35.23-.49.38s-.25.33-.34.52c-.09.19-.15.39-.18.6s-.05.41-.05.62v.21Zm8.87 4.91v-1.22h2.78v-6.17h-2.51v-1.21h3.87v7.38h2.51v1.22h-6.65Zm3.32-10.05c-.14 0-.28-.02-.41-.06a.843.843 0 0 1-.56-.56 1.403 1.403 0 0 1 0-.82.843.843 0 0 1 .56-.56c.14-.04.27-.07.41-.07s.28.02.41.07.25.12.35.21c.1.1.17.21.21.35.04.13.07.27.07.41s-.02.28-.07.41-.12.25-.21.35c-.1.1-.21.17-.35.21-.13.04-.27.06-.41.06Zm9.11 10.18c-.23 0-.47-.02-.7-.05-.24-.03-.47-.09-.69-.18-.22-.09-.42-.21-.61-.36s-.34-.32-.47-.52a1.9 1.9 0 0 1-.27-.64c-.06-.23-.08-.47-.08-.71 0-.31.05-.61.15-.9s.25-.55.46-.77.45-.4.72-.54c.27-.14.55-.25.85-.33.3-.08.6-.14.9-.17s.6-.04.9-.04h1.79v-.66c0-.18-.02-.35-.07-.53a1.49 1.49 0 0 0-.21-.48c-.1-.14-.22-.27-.37-.37-.15-.1-.31-.18-.47-.24-.17-.06-.34-.09-.51-.12a4.373 4.373 0 0 0-1.25.03c-.24.04-.46.12-.68.23-.22.12-.39.28-.53.49-.14.21-.21.44-.21.68h-1.37c0-.28.05-.54.14-.81s.23-.5.4-.72.37-.4.6-.55.48-.28.74-.36c.26-.09.53-.15.8-.18.28-.03.55-.05.83-.05.3 0 .59.02.88.06.29.04.57.11.84.22.27.1.52.25.76.42.24.18.44.39.6.63.17.24.28.51.35.79.07.29.1.58.1.88v5.74h-1.37v-1.49c-.12.26-.29.5-.5.72a2.985 2.985 0 0 1-1.56.82c-.29.05-.59.08-.88.08Zm.51-1.21c.2 0 .4-.02.6-.05.2-.03.39-.08.58-.15s.36-.16.53-.28c.17-.12.31-.26.42-.43s.2-.35.24-.55.07-.4.07-.59v-.74h-1.79c-.18 0-.36 0-.55.02-.19.01-.37.04-.55.07-.18.04-.35.08-.53.14-.18.05-.34.13-.5.24-.15.11-.28.24-.36.41s-.13.34-.13.51c0 .23.06.45.18.64.12.2.28.36.47.47s.4.19.63.23c.23.04.45.06.69.06Z" />
  </g>
</svg>