<svg xmlns="http://www.w3.org/2000/svg" viewBox="0 0 418 90.03">
  <g data-name="Layer 1">
    <rect width="61.68" height="47.89" x="43.87" y="42.14" rx="4.01" ry="4.01" />
    <rect width="43.87" height="41.92" rx="4.01" ry="4.01" />
    <path
      fill="var(--text-color)"
      d="M383 41.77a4.01 4.01 0 0 1-4.01-4.01V27.35h-3.74v-.12h-37.9v.12h-3.74v10.41a4.01 4.01 0 0 1-4.01 4.01h-37.35v.08H135.34a4.01 4.01 0 0 1-4.01-4.01V4.01A4.01 4.01 0 0 0 127.32 0h-17.77a4.01 4.01 0 0 0-4.01 4.01v33.91a4.01 4.01 0 0 0 4.01 4.01h17.41a4.01 4.01 0 0 1 4.01 4.01v40.09a4.01 4.01 0 0 0 4.01 4.01h157.57v-.08h37.62a4.01 4.01 0 0 0 4.01-4.01V73.3a4.01 4.01 0 0 1 4.01-4.01h33.88a4.01 4.01 0 0 1 4.01 4.01v12.65a4.01 4.01 0 0 0 4.01 4.01H414a4.01 4.01 0 0 0 4.01-4.01V45.8a4.01 4.01 0 0 0-4.01-4.01h-30.99Z" />
  </g>
</svg>