<svg xmlns="http://www.w3.org/2000/svg" data-name="Ebene 2" viewBox="0 0 288.74 127.83">
  <path
    fill="var(--text-color)"
    d="M66.59 61.55h61.24v66.28H66.59zM0 0h66.28v61.24H0zm195.23 28.36c-.17-.38-.39-.72-.66-1.02-.27-.3-.59-.55-.95-.74-.37-.19-.75-.33-1.15-.42-.4-.09-.8-.13-1.21-.13s-.81.04-1.21.13-.78.23-1.15.42-.68.44-.95.74c-.27.3-.49.64-.66 1.02-.17.38-.29.76-.36 1.16-.06.4-.1.8-.1 1.21v.42h8.86v-.42c0-.41-.03-.81-.1-1.21-.06-.4-.18-.79-.36-1.16ZM128.14 0v61.24h160.59V0H128.14Zm80.61 18.29c.08-.26.21-.49.4-.68.19-.19.42-.33.68-.42.26-.09.53-.13.81-.13s.55.04.81.13.48.23.68.42c.19.19.33.42.42.68.09.26.13.53.13.81s-.04.55-.13.81-.23.48-.42.68c-.19.19-.42.33-.68.4-.26.08-.53.11-.81.11s-.55-.04-.81-.11a1.68 1.68 0 0 1-.68-.4 1.52 1.52 0 0 1-.4-.68c-.08-.26-.11-.53-.11-.81s.04-.55.11-.81Zm-29.65 1.07h-5.92v21.4h-2.65v-21.4h-5.92V17h14.48v2.36Zm19.26 14.19h-11.54v.42c0 .41.03.82.1 1.23.06.41.18.8.36 1.16.17.37.4.71.69 1.02.29.31.61.56.97.74.36.18.74.31 1.15.39.41.08.82.11 1.23.11.47 0 .94-.03 1.39-.1.45-.06.89-.19 1.31-.39.42-.19.78-.47 1.08-.84s.47-.79.52-1.26h2.68c-.04.54-.17 1.06-.37 1.55-.21.5-.48.94-.82 1.34-.34.4-.74.74-1.2 1.02s-.93.5-1.44.66c-.51.16-1.02.27-1.55.32-.53.05-1.06.08-1.6.08-.62 0-1.26-.05-1.89-.16-.64-.11-1.24-.3-1.81-.58-.57-.28-1.09-.64-1.55-1.08s-.84-.95-1.13-1.52c-.29-.57-.5-1.17-.61-1.79-.12-.62-.18-1.26-.18-1.91v-3.23c0-.62.05-1.26.16-1.89.11-.63.31-1.23.6-1.79s.67-1.07 1.13-1.52c.46-.45.97-.82 1.54-1.1s1.16-.47 1.79-.58c.64-.11 1.27-.16 1.89-.16s1.25.05 1.89.16c.64.11 1.23.3 1.79.58.56.28 1.07.65 1.54 1.1.46.45.84.96 1.13 1.52.29.56.49 1.16.6 1.79.11.64.16 1.27.16 1.89v2.81Zm18.78 7.21h-12.99v-2.39h5.43V26.31h-4.91v-2.36h7.56v14.42h4.91v2.39Zm19.75 0h-2.68v-2.91c-.24.52-.57.99-.99 1.41-.42.42-.89.76-1.41 1.03-.52.27-1.06.46-1.63.57-.57.11-1.15.16-1.73.16-.45 0-.91-.03-1.37-.1-.46-.06-.91-.18-1.34-.36-.43-.17-.83-.4-1.2-.69s-.67-.63-.92-1.02-.43-.81-.53-1.26a5.87 5.87 0 0 1-.16-1.39c0-.6.1-1.19.29-1.76.19-.57.5-1.07.91-1.5.41-.43.88-.78 1.41-1.05s1.08-.49 1.67-.65c.58-.16 1.17-.27 1.76-.32.59-.05 1.18-.08 1.76-.08h3.49v-1.29c0-.34-.04-.69-.13-1.03-.09-.34-.23-.66-.42-.94-.19-.28-.44-.52-.73-.73-.29-.2-.6-.36-.92-.47-.32-.11-.66-.18-1-.23a9.024 9.024 0 0 0-2.44.05c-.46.08-.91.23-1.33.45-.42.23-.77.54-1.03.95-.27.41-.4.85-.4 1.33h-2.68c0-.54.09-1.07.27-1.58.18-.52.44-.99.78-1.41.33-.42.73-.78 1.18-1.08.45-.3.93-.54 1.44-.71.51-.17 1.03-.29 1.57-.36s1.08-.1 1.62-.1c.58 0 1.16.04 1.73.11.57.08 1.12.22 1.65.42.53.21 1.02.48 1.49.82.46.35.86.75 1.18 1.23.32.47.55.99.68 1.55s.19 1.13.19 1.71v11.22Zm-7.24-7.53c-.37.02-.72.07-1.07.15-.34.08-.69.17-1.03.27-.35.11-.67.26-.97.47-.3.21-.54.47-.71.79-.17.32-.26.66-.26 1 0 .45.12.87.36 1.26s.54.7.92.92c.38.23.79.38 1.23.45.44.08.89.11 1.34.11.39 0 .78-.03 1.16-.1.39-.06.76-.16 1.13-.29.37-.13.71-.31 1.03-.55s.6-.52.82-.84c.23-.32.38-.68.47-1.07.09-.39.13-.78.13-1.16v-1.45h-3.49c-.35 0-.7.01-1.07.03Z"
    data-name="Layer 1" />
</svg>