<svg xmlns="http://www.w3.org/2000/svg" viewBox="0 0 91.49 25.34">
  <path
    fill="var(--text-color)"
    d="M0 .89V0h5.09v.89H0Zm5.09 2.45H0v-.89h5.09v.89ZM7.2.89V0h5.09v.89H7.2Zm5.09 2.45H7.2v-.89h5.09v.89ZM14.4.89V0h5.09v.89H14.4Zm5.09 2.45H14.4v-.89h5.09v.89ZM28.8.89V0h5.09v.89H28.8Zm5.09 2.45H28.8v-.89h5.09v.89ZM36 .89V0h5.09v.89H36Zm5.09 2.45H36v-.89h5.09v.89ZM43.2.89V0h5.09v.89H43.2Zm5.09 2.45H43.2v-.89h5.09v.89ZM57.6.89V0h5.09v.89H57.6Zm5.09 2.45H57.6v-.89h5.09v.89ZM79.2.89V0h5.09v.89H79.2Zm5.09 2.45H79.2v-.89h5.09v.89ZM7.2 11.89V11h5.09v.89H7.2Zm5.09 2.45H7.2v-.89h5.09v.89Zm16.51-2.45V11h5.09v.89H28.8Zm5.09 2.45H28.8v-.89h5.09v.89ZM36 11.89V11h5.09v.89H36Zm5.09 2.45H36v-.89h5.09v.89Zm16.51-2.45V11h5.09v.89H57.6Zm5.09 2.45H57.6v-.89h5.09v.89ZM72 11.89V11h5.09v.89H72Zm5.09 2.45H72v-.89h5.09v.89Zm2.11-2.45V11h5.09v.89H79.2Zm5.09 2.45H79.2v-.89h5.09v.89Zm2.11-2.45V11h5.09v.89H86.4Zm5.09 2.45H86.4v-.89h5.09v.89ZM7.2 22.89V22h5.09v.89H7.2Zm5.09 2.45H7.2v-.89h5.09v.89Zm16.51-2.45V22h5.09v.89H28.8Zm5.09 2.45H28.8v-.89h5.09v.89ZM36 22.89V22h5.09v.89H36Zm5.09 2.45H36v-.89h5.09v.89Zm2.11-2.45V22h5.09v.89H43.2Zm5.09 2.45H43.2v-.89h5.09v.89Zm9.31-2.45V22h5.09v.89H57.6Zm5.09 2.45H57.6v-.89h5.09v.89ZM72 22.89V22h5.09v.89H72Zm5.09 2.45H72v-.89h5.09v.89Zm9.31-2.45V22h5.09v.89H86.4Zm5.09 2.45H86.4v-.89h5.09v.89Z"
  />
</svg>