<svg xmlns="http://www.w3.org/2000/svg" xml:space="preserve" viewBox="0 0 256 64">
	<switch><g>
		<path fill="var(--text-color)" d="M7.28 7.925v16.479h16.064v32.924h16.977V24.404H56.77V7.925z"/>
		<path fill="var(--text-color)" d="M23.344 58.153a.828.828 0 0 1-.825-.825V25.229H7.279a.83.83 0 0 1-.825-.825V7.925c0-.218.088-.431.242-.584a.833.833 0 0 1 .583-.241H56.77v.826V7.1a.83.83 0 0 1 .825.826v16.479a.83.83 0 0 1-.242.583.832.832 0 0 1-.583.242H41.146v32.099a.83.83 0 0 1-.825.825H23.344v-.001zM8.104 23.58h15.239a.83.83 0 0 1 .583.24.834.834 0 0 1 .242.584v32.1h15.327v-32.1c0-.218.089-.43.242-.584a.834.834 0 0 1 .584-.24h15.623V8.75H8.104v14.83z"/>
	</g>
</switch>
</svg>