<svg xmlns="http://www.w3.org/2000/svg" viewBox="0 0 2000 2000">
  <path fill-rule="evenodd" fill="var(--text-color)"
    d="m562 656 9 1a22 22 0 0 0 6-1l6 1h4a28 28 0 0 1 9 0h3c5 1 10 1 13 4 6 4 9 9 4 16l-7 4-5 2h-5l-15 1h-17l-12 1-6-1a21 21 0 0 0-6 0h-6a48 48 0 0 1-14 0 21 21 0 0 0-6 0h-18a38 38 0 0 1-10 0h-8a42 42 0 0 1-7 0 10 10 0 0 0-4 0h-40l-2-1-5 1a32 32 0 0 1-9 0h-29a39 39 0 0 1-6 1h-17l-9-1-11 1a44 44 0 0 0-11 0l-7-1-4 1h-8l-3-2-6 2h-17a27 27 0 0 0-8 0l-8 1-8-1a27 27 0 0 0-7 0h-41a72 72 0 0 1-21-1l-10 1h-3a58 58 0 0 1-8 0l-5 1-4-1-4 1-4-1-9 1c-1-1-3-3-5-2l-2 1h-7l-4-1h-3l-3-1h-5a12 12 0 0 1-4-4c-2-3 0-4 1-6l-2-3 3-3c2-2 4-5 7-6l11-1 5-1a32 32 0 0 0 9 0h15l5 1 3-1 10 1 8-1h42a19 19 0 0 0 6 0h7l6-1 4 1 4-1 10 1a46 46 0 0 1 13 0h6c2 0 2 3 4 3l4-2 3 1c3 1 2-2 4-3h10a56 56 0 0 1 15 0h33l6 1 4-2 12 1h17a24 24 0 0 0 7 0h16a13 13 0 0 0 5 0h3l7-1 9 1a54 54 0 0 1 12 0h10l9-1c10 2 22-1 32 1a13 13 0 0 0 5-1h4l6 1-1 3 1 1a3 3 0 0 0 2-1l-1-3c2-2 6 0 9-1h6a67 67 0 0 0 11 0h6l6-1Zm618 7a108 108 0 0 1 19 1h7l3 1a14 14 0 0 1 9-1 8 8 0 0 0 3 0 29 29 0 0 1 10 0h6l4 1h4l3 1h3l6 2c2 2 5 4 5 7v3l-1 5c-5 6-15 6-24 8h-5a42 42 0 0 1-13 0l-3-2-6 2h-8a15 15 0 0 0-5-1 42 42 0 0 1-11 0l-10 1h-14l-19-1a75 75 0 0 1-20 0h-7c-4-1-3-3-5-4l-4 3-10-4-2-4-3-2a9 9 0 0 1 0-4c1-5 4-7 9-8 7-3 23-4 32-3a7 7 0 0 0 3 0l9-1h8a21 21 0 0 0 6 0l7 1 5-1h9Zm-771 1c-1 1-1 1 1 1v-1h-1Zm-116 1a2 2 0 0 0-1 0c-1 2 0 3 1 4l2-4h-1Zm-110 1-1 1a1 1 0 0 0 1 2 2 2 0 0 0 1 0 2 2 0 0 0 1 0 2 2 0 0 0 0-2 3 3 0 0 0-2-1Zm331 5-2 1v1a2 2 0 0 0 1 1 2 2 0 0 0 3-2v-1h-1Zm-392 2a2 2 0 0 0-1 1c-1 1 1 4 3 4l2-4a5 5 0 0 0-4-1Zm168 0-3 3 1 1a7 7 0 0 0 4-1 4 4 0 0 0-1-3Zm39 0a1 1 0 0 0-1 1h1v-1Zm-35 3-1 1a1 1 0 0 0 1 1 2 2 0 0 0 1-1Zm175 27h71a31 31 0 0 0 9 0h10a52 52 0 0 1 13 1l10-1c2 1 4 2 6 1h3a31 31 0 0 1 10 0h4c8 2 17 6 13 18-1 3-4 3-7 5-7 4-20 4-31 4h-8a22 22 0 0 1-6 0h-32l-4-1-7 1a32 32 0 0 0-9 0h-21a40 40 0 0 1-11 0h-24l-3-1-2 1a41 41 0 0 1-10 0h-6l-3-1-3 1h-6a26 26 0 0 1-7 0l-10 1-4-1h-18a54 54 0 0 1-11 1h-5l-6-1-17 1h-59a47 47 0 0 0-10 0 44 44 0 0 1-13 0h-17a24 24 0 0 1-7 0 66 66 0 0 0-14 0h-40a89 89 0 0 1-26 0l-10 1h-8l-13-2h-4l-2-1-3 1c-6-2-11-4-12-10a9 9 0 0 1 1-7c4-5 5-4 11-6h2l3-1h3l7-1 9-1a43 43 0 0 1 12 0l11-1a94 94 0 0 0 10 1l4-1a29 29 0 0 0 8 1h11a64 64 0 0 1 15 0l20-1 8 1 16-1h15l7 1 18-1h7a44 44 0 0 1 10 0h6a43 43 0 0 1 13 0 18 18 0 0 0 5 0h13a61 61 0 0 0 14 0h7l8-1a59 59 0 0 0 14 0h41a36 36 0 0 0 6 0h25Zm656 6h12l13 1 11-1a62 62 0 0 0 13 1h4a11 11 0 0 0 4 0h5a34 34 0 0 0 10 0h17a58 58 0 0 1 8 0l4-1a24 24 0 0 0 7 1h7a63 63 0 0 1 8 2l5 1c5 1 11 5 9 13-2 9-12 9-23 11h-95c-3 1-6 0-9-1l-10 1-8-1c-6-1-13-1-18-3a12 12 0 0 1-4-3c-3-4-4-5-3-11l2-3a8 8 0 0 1 7-4 11 11 0 0 0 3 1l1-2 11-2h9Zm-872 5a2 2 0 0 0-1 1l1 1a2 2 0 0 0 2-1l-2-1Zm186 10a9 9 0 0 0-2 2 1 1 0 0 0 1 1c1 1 3 0 2-2a1 1 0 0 0-1-1Zm772 3a3 3 0 0 0-1 1 1 1 0 0 0 2 1v-2h-1Zm-697 22h16l3 1h16l6-1 13 1h28a42 42 0 0 1 7 0c7 2 13 4 15 9v10c-3 4-5 4-11 6l-2 1-8 1h-6a55 55 0 0 1-16 0h-3l-2-1-4 1h-26l-4-1-4 1h-22c-1 0-5-2-6-1l-3 2h-47l-19 1h-6a89 89 0 0 1-25 0h-20l-5-1h-34l-10 1a38 38 0 0 0-10 0h-15a35 35 0 0 0-10 0h-4l-12-1-13 1-3-2-3 1h-32a22 22 0 0 1-7 0h-4c-5-1-9 0-14 1l-11-1h-4a56 56 0 0 1-17 0h-14l-14-1-6 1-7-1h-4c-2 0-2-2-3-2-2-1-4 1-6 1l-3-1c-5-2-8-2-9-9l1-4c2-7 7-8 15-9l14-1h6a51 51 0 0 1 14 0h34a34 34 0 0 1 10 0l11-1h55l7-1 3 1 10-1a49 49 0 0 0 8 0h12a35 35 0 0 0 9 0h11l2 1c1 1 2-1 4-1h36a33 33 0 0 1 9 0h9a49 49 0 0 0 8 0h26a64 64 0 0 1 12 0h11a30 30 0 0 0 8 0h7c4 1 9 0 12-1l5 1h6a20 20 0 0 0 6 0 29 29 0 0 1 9 0l9-1h5Zm644 6h32l15 1 8-1 15 1 4-1 7 1h5c4 1 8 1 11 3l2 2 3 2c1 1 3 5 2 9 0 2-2 3-3 4-4 5-12 5-20 7a12 12 0 0 1-4-1l-4 1h-65l-18-1a34 34 0 0 0-10 1l-11-1h-15l-8-1a24 24 0 0 1-9-4 13 13 0 0 1-4-4 7 7 0 0 1 2-9l2-1 1-2c8-7 31-6 46-6h13Zm-766 41h7a44 44 0 0 1 7 0h28c7 2 13 1 18 4 6 4 8 15 2 20-4 3-11 4-16 5h-22a62 62 0 0 1-15 0h-51l-19 1a65 65 0 0 1-10-1l-5 1a39 39 0 0 0-9-1h-13l-7-1c-8-1-16-4-18-12a9 9 0 0 1 1-5l3-5c2-2 10-3 13-4l9-1h20l16-1 8 1 9-1a41 41 0 0 0 11 0h33Zm-51 3h-1c0 2 1 2 2 2a1 1 0 0 0 0-2Zm81 44h11l7 1c5 1 10 2 14 5l3 4c3 7-1 13-7 16l-13 3h-97a66 66 0 0 1-16 0h-24l-9-1-9-2h-4c-4-2-7-6-8-10-1-5 2-8 4-10 6-4 13-4 22-5h7l68-1h10a43 43 0 0 0 10 0h25Zm287 1a33 33 0 0 1 5 1h34l14 2 10-1h84l8-1a38 38 0 0 1 10 1l7-1 13 1h4l3 1 3-1h6l2 1a6 6 0 0 0 3 0h7c6 1 10 2 13 5a7 7 0 0 0 1-1l4 2a5 5 0 0 0 2-1l4 1 5 1 8 3 2 2 3 1c3 2 7 7 3 10-5 4-17 2-25 3h-15l-9-1-4 1-4-1h-9l-6 1-24-1-15 1h-13l-13-1a50 50 0 0 0-11 1l-7-1a52 52 0 0 1-15 0h-36l-3-1-4 1h-5a24 24 0 0 1-7-1l-4 1h-8l-17-1h-6a53 53 0 0 0-14 0h-25a136 136 0 0 0-15-1c-4 0-13 0-12-5s8-8 12-10h3l7-4 6-1 3 1 4-2 16-3 12-1Zm782 2h9a21 21 0 0 1 6 0 32 32 0 0 0 9 0l9 1 8-1 5 1a42 42 0 0 1 12 0h5c7 1 14-1 20-1h4l12 2 4 1h3l7 2 4 1c7 3 19 8 21 15 1 5-5 6-9 6h-10a36 36 0 0 1-10 0h-11l-1-2-7 2h-29a52 52 0 0 0-13 0h-9l-15-1-4 1a87 87 0 0 0-12-1h-32l-5-1a42 42 0 0 1-12 0h-7c-3-1-7-1-8-5l2-3c3-3 6-5 10-6l15-6 5-1 5-1 5-1 8-1 6-1Zm219 0h20c3 0 5 2 7 1l7-1 5 1a88 88 0 0 1 23 0h3l8 2 4-2 6 1h9l6 1h4c7 1 15 4 13 13-1 6-6 8-11 10l-6 1-12 1h-17a39 39 0 0 0-10 0l-4-1-9 1h-9a52 52 0 0 0-7 0h-36a39 39 0 0 1-12 0h-10c-11-2-24 0-28-8s-1-13 5-16a35 35 0 0 1 8-2h5l9-1h6l10-1h10Zm-600 2h41a67 67 0 0 1 13 0h27l6 1 6-1 6 1c4-1 12-2 17-1h12c10 2 19 1 22 9a12 12 0 0 1 1 7l-2 3c-4 7-11 7-20 8h-46a50 50 0 0 1-13 0 36 36 0 0 0-9 0h-37a51 51 0 0 0-14 0h-4a56 56 0 0 0-9 0h-30l-21-1a52 52 0 0 1-10-3c-4-1-7-2-8-6-1-5 1-10 4-12l4-1c3-2 5-2 10-3h10l3-1h11a45 45 0 0 0 10 0h5a27 27 0 0 1 7 0h4Zm-784 11h-1v1h1v-1Zm68 30 13 1 8-1 4 1h13l10 1a31 31 0 0 1 7 2h2l4 4c3 6 4 10 0 16-4 4-13 4-20 5l-11 1h-45l-5-1a43 43 0 0 1-11 1l-6-1-6 1h-6l-9 1-4-1h-31l-7-1a42 42 0 0 1-5-1h-2l-6-1c-6-1-10-5-11-11-1-2 0-3 1-4 2-6 5-5 11-7l5-2 8-1a95 95 0 0 1 11-1l6 1 12-1h6l24-1h12l4 1h5a51 51 0 0 0 13-1h6Zm272 2h14a40 40 0 0 1 11 0h11a26 26 0 0 0 8 0h25l21 1 7-1h17l11 1a48 48 0 0 1 7 0h18a93 93 0 0 0 23 0h32a47 47 0 0 1 13 0h30a14 14 0 0 1 4 0h8l10-1 5 1h31c6 1 12 1 17 4 4 2 8 5 7 12-2 10-11 10-20 11l-8 1h-6a58 58 0 0 1-9 0h-12l-3-1-7 1a62 62 0 0 1-15 0h-25l-21-1-21 1-13-1h-6a30 30 0 0 0-8 0h-38l-4-1-9 1a43 43 0 0 1-12 0h-10l-20-1h-9a40 40 0 0 1-11 1l-7-1h-12a38 38 0 0 1-8 0h-3a20 20 0 0 1-6 0h-23l-7-1-6 1-8-1-15-2c-5-2-9-4-9-11v-4c3-6 9-7 17-8a37 37 0 0 1 11-1h10a36 36 0 0 0 10 0h13Zm858 1h17l5 1a56 56 0 0 1 12 0h49l11 1h4l4-1 8 1h7l2 1 4-1 14-1h34c2 1 2 3 4 3l3-3h14c9 0 18 2 27 0h12a41 41 0 0 0 10 0 50 50 0 0 1 7 0l10-1 3 1c14 0 27-1 35 5 2 1 4 2 5 5v2l1 4-3 4c-3 4-7 6-13 7h-9a75 75 0 0 1-21 1h-11a15 15 0 0 0-5 0h-10a83 83 0 0 0-12 0h-91a42 42 0 0 0-12 0l-9-1-16 1-6-1a64 64 0 0 1-16 0l-10 1-17-1h-14a55 55 0 0 0-11 0l-9 1-10-1h-4a31 31 0 0 0-8 0h-13a63 63 0 0 1-8 0h-6a24 24 0 0 0-7 0l-9-1a41 41 0 0 1-10 0h-9l-4-1-3 1-7-1c-6-1-13-1-17-4-2-1-5-1-6-3-2-2-1-10 0-12 2-2 6-5 8-5l8-1h4l14-1c2 1 3 2 5 1l5-1a15 15 0 0 0 5 1l4-1a38 38 0 0 0 11 1h8l8-1h5a51 51 0 0 0 14 0h15Zm-316 1h31c6 1 12 2 17 5 7 4 7 14 0 19-7 4-18 5-29 5h-5a17 17 0 0 1-5 0l-12-1h-12l-3 1h-36a79 79 0 0 1-22 0h-43l-18-1h-14c-10-2-18-4-20-14 0-2 2-4 3-5 3-4 7-6 14-7 3 0 3 3 5 2l4-2h9a18 18 0 0 1 6-1c1 1 2 2 4 1l8-1a48 48 0 0 0 12 0 17 17 0 0 1 5 0h32l6-1a44 44 0 0 0 12 0h48Zm506 5h-1v1l1 1 1-1v-1h-1ZM435 908l-1 1 2 3h1l-2-4Zm-146 6a2 2 0 0 0-2 1v1a2 2 0 0 0 2 1c0-1 2-1 1-3Zm135 22c12 0 25 2 31 7 2 1 2 3 2 5 2 7-2 12-7 14-4 2-9 2-13 3h-7l-8 1h-3c-7 1-15-1-22-1h-9l-5 1a45 45 0 0 0-12 0l-10-1-14 1-13-1-7 1-7-1h-18a28 28 0 0 1-8 0l-8-1-4-1c-6-1-10-3-11-9v-3c0-6 1-7 6-9l4-2a31 31 0 0 1 8-2l3 1 7-1h26a64 64 0 0 1 9-1l3 1a36 36 0 0 1 7-1h39a43 43 0 0 0 12 0h21l8-1Zm191 0 33 1h40a25 25 0 0 1 7 0l3 1 5-1 11 1h3l8-1 7 1h27l21 1h14l5-1h25l8 1c3-1 8-2 11-1h34a31 31 0 0 1 9 0h6l12 1 9-1h22l6 1a42 42 0 0 1 12 0h8a44 44 0 0 0 9 0 39 39 0 0 1 12 2h4c5 2 11 5 10 12-1 9-9 11-17 13h-25l-18 1-7-1h-17a12 12 0 0 0-4 0h-4a50 50 0 0 1-12 0h-13a97 97 0 0 0-11 0h-4a37 37 0 0 1-10 0l-9-1h-4l-4-1-4 2-3-1a27 27 0 0 1-7 1 14 14 0 0 0-4-1 324 324 0 0 1-34 0h-13a48 48 0 0 1-11 0 14 14 0 0 0-5 0 74 74 0 0 1-11 0h-39a49 49 0 0 1-14 0l-15-1h-25l-3 1h-11l-15-1c-11 0-25 0-33-3-3-2-8-5-9-8a10 10 0 0 1 1-7c4-7 12-8 21-9 4-1 9 1 12-1Zm844 2a55 55 0 0 0 9 0h11a50 50 0 0 1 14 1l7-1 7 1 5 2 6-2h12a104 104 0 0 0 13 1h28a58 58 0 0 0 11-1l7 1a44 44 0 0 1 12 0h6l3 1c2 0 3-2 6-1a14 14 0 0 0 5 0h2l10 1 6-1 8 1 3-1 7 1a75 75 0 0 1 13 0h6l12-1 18 1 7-1h10a48 48 0 0 1 13 0h7a48 48 0 0 0 13-1 34 34 0 0 1 10 1l5-1a19 19 0 0 1 6 1h28a14 14 0 0 1 4 2l2 1h6c4 1 9 6 8 12-1 7-8 10-15 11l-7 1h-4l-8 1-4-1a14 14 0 0 1-4 1 58 58 0 0 0-14 0h-34a17 17 0 0 1-5 0h-4a48 48 0 0 0-13 0h-23a45 45 0 0 0-10 0h-6l-6-1-10 1-6-1h-32a56 56 0 0 0-9 0 47 47 0 0 0-6 0h-47a45 45 0 0 1-12 0h-46a54 54 0 0 0-8 0l-9-1a46 46 0 0 1-13 0l-7 1h-4l-14-1h-14l-7-1h-4c-7-1-14 0-20-2l-5-2-1-2c-3-3-7-5-5-11 5-10 18-7 30-9h5l11-1a21 21 0 0 1 6 0h18Zm-341 1 33 1h29a41 41 0 0 0 11 0h41c4-1 9 0 12 1h3c7 2 16 5 14 14 0 3-1 4-3 5-4 5-10 6-17 7l-6 1h-14l-3-1-9 1a73 73 0 0 0-18 0 33 33 0 0 1-10-1l-8 1a26 26 0 0 0-7 0h-10a16 16 0 0 0-5 0 50 50 0 0 1-13 0h-6l-10-1a41 41 0 0 1-11 0l-12 1-5-1a21 21 0 0 1-6 1l-3-1h-9a11 11 0 0 1-4 0l-3-2c-2 0-2 2-4 1-7-1-15 0-20-3l-4-4c-1-1-3-2-4-5 0-3 4-9 6-10l3-1 4-1 8-1h5a79 79 0 0 0 11-1h29Zm448 4a2 2 0 0 0-2 1 1 1 0 0 0 1 2 2 2 0 0 0 1 0 1 1 0 0 0 1-2Zm-873 40h36c7 1 14 1 18 5l5 4c2 4 0 11-2 14-8 6-19 5-31 6l-11-1a54 54 0 0 1-15 1l-15-1h-78l-10-1c-8-2-18-3-19-11a11 11 0 0 1 0-4v-3l2-2a18 18 0 0 1 3-3c2-2 5-1 8-2l8-1h8l8-1h35a32 32 0 0 1 9 0h10a20 20 0 0 0 5 0 18 18 0 0 1 5 0h14Zm-350 0a28 28 0 0 1 5 1l4-1 7 1 8-1 12 1h59l10 2c6 2 11 7 9 15-1 9-12 9-21 11h-12l-6-1a70 70 0 0 1-10 1h-11a44 44 0 0 1-7 0h-19l-4-1-3 1h-15a15 15 0 0 0-5 0h-23a19 19 0 0 0-6 0h-14l-4-1h-8c-6-1-15-3-17-8l-1-5c-1-4 2-8 5-9l4-2c9-3 22-3 35-3h14c4-1 10 1 14-1Zm586 1 9 1h5a83 83 0 0 1 13 0h6c7 1 15 1 20 5l4 4c3 3 1 10-1 12-4 6-15 6-24 7h-15a34 34 0 0 1-10 0h-36a40 40 0 0 1-8 0h-27c-9-2-16-2-21-8a10 10 0 0 1-2-4c-1-5 2-10 5-12 2-2 6-2 10-3 9-2 21-1 33-1l6-1a27 27 0 0 0 8 1 18 18 0 0 1 5-1Zm574 0 7 1a62 62 0 0 1 15 0h6c8 1 14 2 19 6a14 14 0 0 1 3 3c3 5 1 12-2 14-4 3-8 4-13 5h-4l-6 1h-38l-7-1h-56l-5-1a47 47 0 0 1-13 0h-14c-10-2-19-4-21-14 0-2 2-4 3-5 3-6 12-7 19-8h10a26 26 0 0 1 7 0h36a80 80 0 0 0 14 0l12 1h6l16-1Zm-363 1h15l19 1 8-1h17a61 61 0 0 0 14 0h8l11 1c5-1 11 1 14 1h3a16 16 0 0 1 5 2l3 3c2 2 5 5 4 9-1 8-9 11-17 12l-13 1h-34a54 54 0 0 1-16 0h-15a27 27 0 0 0-7 0h-10a56 56 0 0 1-16 0 13 13 0 0 0-5 0 19 19 0 0 1-5 0l-10-1-10-1c-4-1-11-4-13-8v-9c0-3 3-3 5-4l3-2c4-2 9-3 14-3h4a42 42 0 0 1 10-1h14Zm648 0 8 1h9c7 2 13 3 17 7 6 4 3 15-3 17a52 52 0 0 1-12 4h-12l-10 1h-10l-4-1a77 77 0 0 1-12 1 57 57 0 0 1-8 0h-6l-8-1-9 1h-8a40 40 0 0 1-11 0h-6l-6-1-6 1-5-1h-9c-13-2-23-1-25-13-1-6 2-9 6-10a52 52 0 0 1 10-4l13-1h27a71 71 0 0 1 12 1h24a45 45 0 0 0 13-1h18l4-1h9Zm-1395 16a2 2 0 0 0 0 1l2 2 1-1a3 3 0 0 0-3-2Zm231 27 17 1h37l21 1h22c10 2 17 1 21 9a10 10 0 0 1 2 6 13 13 0 0 1-2 4c-4 8-11 7-21 8l-7 1h-65a47 47 0 0 0-13 0h-9l-12-1-8 1-9-1h-13l-5-2c-3-1-6 0-8-2-4-1-6-3-7-8s2-8 5-11c2-1 3-2 5-1l1 3 1 1a1 1 0 0 0 1-1c1-2-1-3-1-4 1-2 5-1 8-2l26-1a59 59 0 0 0 9 0l4-1Zm-228 1 7 1h7a61 61 0 0 1 16 0h11c6 1 11 1 15 4l5 5c3 5 1 12-3 14-5 4-14 4-21 5l-9 1h-78a49 49 0 0 1-12 0h-15a31 31 0 0 1-8 0h-8l-20-2-5-3-3-1c-2-1-4-4-4-6l1-4v-2c2-7 10-8 19-9h7l5-1 8 1 11-1h4a63 63 0 0 1 18 0h9a42 42 0 0 0 12-1h23l8-1Zm468 2h22a64 64 0 0 1 17 0l14 1 8-1 11 1h17c8 2 16 3 18 10a7 7 0 0 1 1 4c-2 9-7 11-16 13h-8a32 32 0 0 1-9 1h-23a39 39 0 0 0-11-1 28 28 0 0 1-8 1h-15l-17-1h-16l-7-1a32 32 0 0 1-6-2c-6-3-9-4-8-13l1-5a9 9 0 0 1 6-4h2l3-1 3-1 12-1h9Zm584 0h9l4 1a32 32 0 0 1 10-1h14a49 49 0 0 1 7 1l7-1c8 2 16 0 24 2 6 1 14 1 17 5l2 3a11 11 0 0 1 1 8c-1 7-8 10-15 11h-49a52 52 0 0 1-13 0h-25a18 18 0 0 0-5 0c-3 1-9 0-12-1l-4 1-10-1h-7l-5-1h-4c-8-1-22 0-25-5a17 17 0 0 1-3-4v-5c0-5 2-8 6-9l3-1c7-2 18-3 26-2h11a40 40 0 0 0 13 0h6l14-1h3Zm-324 1a914 914 0 0 1 15 0h49l14 1 5-1h14a32 32 0 0 1 9 0h9l9 2 1 5c3 1 3-1 4-3 6 0 9 11 6 16-4 6-13 7-22 8l-22 1-10-1h-7a68 68 0 0 1-16 0l-14 1-8-1h-5a64 64 0 0 0-17 0 15 15 0 0 1-5 0h-7c-2 0-3-2-5-1l-2 1-9-1h-3c-7-2-12-3-16-7-2-2-3-6-2-10l3-3c3-5 13-5 21-7h11Zm643 0 8 1a37 37 0 0 1 12 0h11l11 1c4 1 10 2 12 5v4l3-1c1 3 2 7 0 9l-1 2-2 3c-4 3-10 4-15 4l-6 1h-40a23 23 0 0 1-7 0h-12a61 61 0 0 1-11 0h-6c-10-1-20 2-30 0h-4l-13-1-12-1c-5-1-8-1-10-5l-1-3-1-2c-2-2 0-6 1-8 3-4 8-5 15-6l4-1 25-1h16a43 43 0 0 1 13 0h30l10-1Zm-1076 43 7 1h10c8 0 16 0 22 3a26 26 0 0 1 5 3 13 13 0 0 1 3 3c3 4 1 11-2 14-5 4-11 4-18 6h-48l-12-1h-46a34 34 0 0 0-11 0 28 28 0 0 1-8-1h-6c-12-2-22-2-24-13-1-4 2-7 5-9l4-3 13-2h36a52 52 0 0 1 14 0h13l14-1a32 32 0 0 0 9 0 770 770 0 0 1 10 0Zm-271 2c13 0 26-1 34 5 4 3 6 11 2 16a18 18 0 0 1-7 5l-15 2h-8l-11 1-10-1h-8l-10 1-4-1h-31a45 45 0 0 0-7 1l-5-1h-26l-10 1-9-1c-10-2-22-2-23-12v-8c3-3 10-6 15-7h4l13-1a37 37 0 0 0 11 0h105Zm461 0 8 1 6-1 8 1h9a41 41 0 0 1 12 0h6a116 116 0 0 1 13 3c8 2 12 11 6 18-4 6-15 6-24 7h-12a20 20 0 0 1-6 0h-42l-17-1-4 1h-8a28 28 0 0 1-8 0l-6-1-3 1-5-1h-5l-20-1a56 56 0 0 1-8-2c-5-2-8-4-9-9l1-5 2-5c2-2 10-4 15-5h12a46 46 0 0 1 11 0h8a20 20 0 0 1 3 1l4-1h39a49 49 0 0 1 9 0l5-1Zm520 0 5 1a12 12 0 0 0 4 0 77 77 0 0 1 21 0h9l13 1h7l2 2 2-1 5-1a944 944 0 0 1 11 0h22a1646 1646 0 0 1 21 1 26 26 0 0 1 9 3c6 4 6 15 0 19-5 4-17 5-26 5h-42l-8-1h-8a43 43 0 0 1-12 0h-15c-9-1-20 1-29-1h-10l-15-3-4-1a11 11 0 0 1-4-11 10 10 0 0 1 1-5c3-4 14-6 20-7h9Zm-277 1h13a62 62 0 0 1 16 0h59a64 64 0 0 1 17 0h5c11 2 19 1 24 8a11 11 0 0 1 2 8c-2 9-10 10-19 12h-5l-20 1a87 87 0 0 1-13-1l-9 1h-10l-9-1h-18a59 59 0 0 1-9 0h-20c-6 0-13 1-18-1h-7a33 33 0 0 1-6-2c-5-2-6-3-8-8 0-2-1-7 1-9l3-2c6-3 10-5 18-6h13Zm665 1a81 81 0 0 1 14 1h5l12 4c7 6 7 16-2 20s-22 4-34 4h-47a39 39 0 0 1-6 0 61 61 0 0 0-10 0h-15l-5-1a45 45 0 0 1-14 0h-5a19 19 0 0 0-6 0h-3c-10-1-19-3-21-13-1-5 4-8 6-10l5-2 8-2h15l16-1a35 35 0 0 1 6 0 76 76 0 0 1 11 1l16-1 15 1h14l7-1h18Zm-965 1-1 1a1 1 0 0 0 0 1 1 1 0 0 0 1 0v-1a1 1 0 0 0 0-1Zm-30 3h-1v1h2v-1a1 1 0 0 0-1 0Zm597 17-1 1v1h1a1 1 0 0 0 1-2h-1Zm-759 22 32 1h26l11-1h4l10 1h7l9 2 4 2a16 16 0 0 1 4 1l2 5a11 11 0 0 1 1 6c-1 7-8 10-15 11l-9 1a28 28 0 0 1-8 0h-7a17 17 0 0 0-4 0 32 32 0 0 1-9 0h-20a12 12 0 0 1-4 0h-7l-5-1-4 1h-7a56 56 0 0 1-15 0h-14a41 41 0 0 1-10-1l-5 1c-14-3-26 0-32-11-3-4 0-9 3-12l3-1c6-5 17-5 28-5h31Zm-224 1h9l12 1 8-1 7 1 3 1 3 1 4 2c5 4 5 15 0 19-6 4-14 4-23 5H319l-5-1-3 1h-10l-12-2h-4l-3-1-5-1-6-7a26 26 0 0 1 1-7l1-1 1-3c2-2 9-4 12-4h5l15-2a33 33 0 0 0 9 0h59a71 71 0 0 0 11-1 46 46 0 0 1 9 1l8-1h6Zm385 1h44a33 33 0 0 0 6 0h13a74 74 0 0 0 18 0 38 38 0 0 1 9 1h7a39 39 0 0 0 12 0h12c6-1 13 0 12 7a7 7 0 0 1-3 4l-4 4-8 4a62 62 0 0 1-20 7h-3l-12 1a70 70 0 0 1-16 0h-22a46 46 0 0 0-11 0 9 9 0 0 1-4 0 342 342 0 0 1-6-1l-12 1-10-1h-6c-6-1-12-3-15-6a9 9 0 0 1-2-4c-2-8 2-10 7-13a30 30 0 0 1 5-3Zm426 0h6a31 31 0 0 1 9 0l5 1h6l5 2 6 3a9 9 0 0 1 3 4c3 7-1 13-6 15a49 49 0 0 1-11 3h-7a91 91 0 0 1-15 1h-27a38 38 0 0 1-7 0h-62l-6-1c-11-1-23 0-28-8a12 12 0 0 1-2-5v-3l1-3 3-3c4-3 7-4 13-5h3l10-1h15l7 1 2-1a57 57 0 0 0 15 0 27 27 0 0 1 8 1h7a26 26 0 0 0 7 0h13l20-1h7Zm244 0 16 1h21l15 1a58 58 0 0 1 7 2c6 2 12 10 8 17-4 6-11 7-20 8h-9l-10 1h-28a26 26 0 0 0-7-1h-5a18 18 0 0 0-5 0 40 40 0 0 1-12 0h-30l-11-1h-6a1557 1557 0 0 1-9-2l-5 1a39 39 0 0 1-8-2l-3-3c-1-1-3 0-4-2l-1-2-2-3c-1-1 1-6 2-7l8-5 8-1 3-1 2 1 17-1h17a51 51 0 0 0 13 0h5l6 1 11-1 16-1Zm247 1 16 1 7-1a58 58 0 0 0 10 1h8a47 47 0 0 1 14 0h20l15 1h5c5 0 10 1 14 3 3 1 6 6 6 11a12 12 0 0 1-3 6c-5 6-10 5-18 7h-44a48 48 0 0 1-14 1h-7l-14-1h-44c-11-2-22-1-27-8l-1-4a8 8 0 0 1 2-10c7-5 21-5 31-6h5a23 23 0 0 0 7 0l12-1Zm-33 8-1 2c1 1 4 2 5 1-1-2-1-3-4-3Zm-1036 35 13 1h54l9 1h12c10 2 16 0 21 8a11 11 0 0 1 1 8c-2 8-9 10-18 11l-13 1h-17a13 13 0 0 0-4-1 24 24 0 0 1-5 1h-11l-8-1h-30a87 87 0 0 0-13 1l-14-1c-11 0-24 0-34-2-4-1-9-2-11-4a11 11 0 0 1-3-10l1-3 1-1 2-4 6-2 16-2a25 25 0 0 0 7 0h22l9-1h7Zm-215 2a36 36 0 0 1 7 1h9l5 1c3 1 5 1 7 3 3 2 5 10 3 15-1 3-5 5-8 6-4 2-8 2-13 2a31 31 0 0 1-9 1l-11-1-8 1h-8a41 41 0 0 1-11 0h-54l-7-1-6 1a55 55 0 0 0-11 0h-4l-13-1-10-1-5-2c-2-1-5-1-6-3l-2-7v-3l1-3c3-5 9-6 16-7a40 40 0 0 1 8-1h10l9-1 20 1h47a28 28 0 0 0 8 0h12l19-1h5Zm711 0h17a46 46 0 0 0 9 0h15l9 1 4 1 2-1h44l8 1c7 1 10 2 13 7a11 11 0 0 1 2 8c-2 7-9 10-17 12h-19a39 39 0 0 0-9 0 14 14 0 0 1-4 0h-17l-11-1-12 1-6-1-7 1-4-1a33 33 0 0 1-8 0h-34c-8-1-17-2-21-6l-4-8c3-12 16-12 28-14h23Zm257 1h30a40 40 0 0 1 10 0h7l21 1h22a50 50 0 0 0 14 0h6l5 1 6 1c7 1 15 5 13 15l-3 5c-3 4-10 5-16 6h-4a24 24 0 0 1-7 0h-38a1161 1161 0 0 1-12 0h-9l-19-1h-7a64 64 0 0 1-16 0h-4a858 858 0 0 1-10 0l-11-2h-3a28 28 0 0 1-9-2c-3-2-7-4-8-8-1-2 1-3 1-4l1-4c3-5 12-7 20-6l4 1c0 2-2 1-2 4a2 2 0 0 0 1 1c3-1 2-4 2-6 1-2 8-2 11-2a11 11 0 0 0 4 0Zm389 1c10 0 29 0 35 4 4 3 8 10 5 17-2 3-6 4-9 6l-13 2h-12a43 43 0 0 1-11 1l-10-1a45 45 0 0 1-13 0h-22a19 19 0 0 1-4-1l-3 1-6-1-4 1a112 112 0 0 0-17 1l-5-1-9-1h-14l-6-1c-7-2-12-5-13-12 0-4 3-8 5-10l6-2a23 23 0 0 1 3-1h5l4-1h68a52 52 0 0 0 15 0h8l7-1h10Zm-20 5h-1v1h1v-1Zm-92 0a3 3 0 0 0-1 2l1 1h1l1-1a2 2 0 0 0-1-2Zm-1057 39c14-1 29-1 42 1a32 32 0 0 0 8 0h40l21 1 11-1h6l14 1h7l4-1 3 4h1l2-3h26a29 29 0 0 0 8 0h14l20 1h5a49 49 0 0 0 11 0h7a40 40 0 0 1 11 0h26a51 51 0 0 1 13 0h21l13 1h3l4 1c2 0 4 2 5 3l4 2v5c1 4 2 5 0 8-4 4-10 5-17 6h-6a35 35 0 0 1-6 1h-5a36 36 0 0 1-10 0h-13l-14-1h-79a62 62 0 0 1-18 0h-24c-1-1-2-3-4-2l-5 2h-15l-3-1h-42a49 49 0 0 0-8 0h-28l-14-1h-45l-6-1-4-1h-3l-2-1c-5-2-7-1-9-6l-1-2v-8c5-8 14-6 24-8h7Zm613 0 16 1h4a32 32 0 0 1 10 0 322 322 0 0 1 21 0l7 1h7l6 2 8 2c5 3 8 9 4 15-4 7-18 8-29 8h-40l-3-1-3 1h-67l-7-1a15 15 0 0 1-4 1h-21c-2 0-3-2-5-1h-17l-14-1-3-2-3-1c-4-2-6-6-7-10-1-3 2-5 3-7l6-2a105 105 0 0 1 11-3l8-1a57 57 0 0 1 13 0h46a44 44 0 0 1 12 0h3a68 68 0 0 0 15 0h16l7-1Zm-781 0 7 1h17l15 1 3-1 5 1 8-1a50 50 0 0 1 9 3l5 2c4 2 7 10 3 14-2 3-4 5-8 6h-4l-2 1a32 32 0 0 1-7 1h-7a14 14 0 0 1-5 0h-3l-4 1h-38a50 50 0 0 0-14 0h-23l-9 1-9-1-11 1h-10l-8-1h-52a25 25 0 0 1-6 0c-11-2-25-1-27-12-1-3 2-5 3-7l1-3 3-1 2-1 9-2h7c3-1 7-2 11-1a18 18 0 0 0 5 0 19 19 0 0 1 6 0 41 41 0 0 0 11 0h19l23-1h3a45 45 0 0 1 7 0h11a58 58 0 0 0 14 0h12a12 12 0 0 1 4 0 52 52 0 0 0 14 0c3-1 7 1 10-1Zm935 2 7 1h20a59 59 0 0 0 15 0h5a38 38 0 0 0 10 0h6a21 21 0 0 0 6 0h11a58 58 0 0 1 16 0h10l8-1 11 1h35l11 1h19a288 288 0 0 0 5-1l3 1 5-1 4 1c11-1 23 0 29 5 2 2 5 4 4 9-1 8-6 9-13 11l-4 1h-8l-8 1a20 20 0 0 1-6 0l-14-1h-54l-3 1-5-1a33 33 0 0 1-9 0h-13a25 25 0 0 0-4 1l-6-1h-13l-8 1-4-1h-17a11 11 0 0 1-4 0 2762 2762 0 0 1-12 0h-12l-4-1h-15a7 7 0 0 0-3 0h-6c-6-1-16-3-18-7l-1-4c0-1-3-3-2-5 0-3 3-4 4-5l10-5h7Zm350 1 13 1a40 40 0 0 1 11-1h10a44 44 0 0 1 7 1h7a29 29 0 0 1 9 0h7a1367 1367 0 0 0 20 0l8 1a61 61 0 0 1 17-1h8l11 1c6 1 12 4 14 8l1 4c1 5-3 8-6 10l-3 1c-3 2-6 2-10 3h-3a87 87 0 0 1-21 0 944 944 0 0 1-12 0 21 21 0 0 0-6 1h-5l-12-1c-2 0-2-2-3-2l-2 2a15 15 0 0 1-6 0h-3l-5 1h-30a40 40 0 0 1-9 0h-38a63 63 0 0 1-11-1h-10l-10-1c-9-1-14-2-17-10-3-6 4-12 8-13a34 34 0 0 1 6-2h8c3 0 7-2 10-1h7l3 1 9-1a28 28 0 0 1 9 0l4 1 2-1h5l5-1h3Zm-145 12a5 5 0 0 0-1 1c0 2 4 2 3 0l-1-1h-1Zm-1124 32h37c5 1 11 1 15 3l5 6c1 2 0 5-1 6v5l-6 5-8 2h-3l-16 1-8 1-12-1h-27l-6 1a30 30 0 0 0-8-1 51 51 0 0 1-14 0l-2 1-8-1-3 1-4-1a11 11 0 0 1-4 1 41 41 0 0 0-12 0 16 16 0 0 1-5-1l-4 1-14-1-14 1-4-1-4-2c-2 0-2 2-3 2l-13 1c-7-1-16 0-23-2l-6-1-3-2-2-1-4-4v-4l1-1c1-3 1-7 3-8 7-5 19-3 29-4h24l17-1h36a35 35 0 0 0 10 0h42a98 98 0 0 0 15-1h7Zm172 0h67a86 86 0 0 1 16 1h24a41 41 0 0 1 11 0h24l10 1a64 64 0 0 1 10-1h11l11 1 11-1a41 41 0 0 1 11 0h23a54 54 0 0 0 13 0h42l12 1 4-1 13 1 4 1c7 1 11 2 13 8 1 1 2 3 1 5-2 12-11 11-23 13h-7a63 63 0 0 1-15 0l-6 1-14-1a12 12 0 0 1-4 0h-32a81 81 0 0 1-11 0h-12l-14-1h-4a53 53 0 0 0-13 1l-14-1h-28a19 19 0 0 0-6 0h-49a31 31 0 0 0-8 0l-5-1a38 38 0 0 1-10 0l-8 1-8-1h-4l-3 1h-3c-4 0-9-2-15-1a24 24 0 0 1-6 0h-12c-13-2-24-2-27-13-2-4 1-6 3-8l3-2c4-3 10-3 15-4h9Zm502 0a60 60 0 0 1 9 1l4-1 7 1h65l16-1 8 1h9a42 42 0 0 0 12 0h10a50 50 0 0 1 14 0l8 1 6 2c4 1 9 4 8 10a23 23 0 0 1-1 5 13 13 0 0 1-6 5l-3 1a48 48 0 0 1-10 3h-10l-8 1h-6a31 31 0 0 0-9-1 20 20 0 0 1-6 1l-6-1-3 1-9-1a52 52 0 0 0-15 1l-13-1h-16a50 50 0 0 1-9 0h-18l-3-1c-2 0-2 2-4 1h-7l-4-1a41 41 0 0 1-11 0h-8c-9-1-23 0-28-6-1-2-4-8-2-12 4-5 10-7 17-8l13-1h9Zm263 1h19a50 50 0 0 1 9 1h4c2 0 2 3 5 2l3-2 7 1 14-1 12 1h36l14-1a58 58 0 0 0 12 0h28a47 47 0 0 1 13 0h9c13 2 40-1 37 16-2 11-12 11-23 12h-4a40 40 0 0 1-11 0h-34a57 57 0 0 1-10 1l-4-1-7 1-7-1h-5a22 22 0 0 1-6 0h-9a37 37 0 0 1-11 0h-21a51 51 0 0 0-11 0h-8a26 26 0 0 0-8 0 9 9 0 0 1-4-1l-3 1-14-1-3-1-5 1c-4 1-8-1-11-1-10 0-28-1-32-5l-2-4c-1-2-3-3-2-6l1-2 1-3 3-2 5-2 3-1 6-1 10-1Zm419 1a61 61 0 0 1 10 1 23 23 0 0 0 7 0h16l6 1 6 1 5 2c8 5 8 14 1 19-9 7-27 3-41 5h-68a21 21 0 0 1-6 1l-11-1a36 36 0 0 1-9 1l-4-1a38 38 0 0 1-14 1h-5a82 82 0 0 1-8-1h-6c-17-2-44 3-47-13-1-5 3-8 6-9 5-4 13-4 20-6h24a75 75 0 0 1 22 0h8a105 105 0 0 1 14 1h15a15 15 0 0 0 5 0h5a49 49 0 0 0 14-1 769 769 0 0 0 10 0h19l6-1Zm-149 23v1h1v-1h-1Zm-1011 21a73 73 0 0 1 11 1 21 21 0 0 0 6 0h42a31 31 0 0 0 9 0h2a7 7 0 0 0 3 1 28 28 0 0 1 8-1h34l3 1 2 2 3-2h15a61 61 0 0 1 12 0h42a58 58 0 0 0 9 0h10l3 1a32 32 0 0 1 10 0h14a37 37 0 0 0 10 0h11c6-1 14-2 20-1h8l8 2 3 1 5 2c4 3 6 11 2 16-2 2-11 5-15 6a15 15 0 0 1-5-1h-7c-2 0-2-3-4-3l-3 4h-31l-3-1-2 1-7-1-3 1h-4l-8-1h-29a48 48 0 0 1-12 0h-36l-5-1-3 1-2-1-3 1h-47l-8-1-3-1-5 1-23-2h-4l-9-2h-5l-5-2-3-1a225 225 0 0 0-5-1 42 42 0 0 1-12-4l-3-4h-2l-2-2-3-2c-1-4 1-6 4-6h3l5-1h4Zm484 0 12 1 3 1c2-2 7-1 11-1h11a39 39 0 0 1 12 0h8c4 1 13-2 15 1 0 2-1 7 1 8a2 2 0 0 0 2 0c3-1 0-5 1-8 1-2 3-1 6-1a56 56 0 0 1 14 0h36c8-1 24 0 29 3 3 2 10 7 8 13l-2 3-2 3a15 15 0 0 1-3 1l-2 2-8 1h-7a72 72 0 0 1-12 1h-19a49 49 0 0 1-13 0h-4a29 29 0 0 0-8 0h-27a55 55 0 0 1-13 0h-6l-12-1-3-1-6-1-3-1h-3a64 64 0 0 1-12-4c-3 0-4-2-6-3-4-1-10-3-12-7v-2c0-2-3-2-2-4 2-4 7-3 12-3Zm-657 1h20l4 2c5 1 6 1 8 4 2 2 4 6 3 9a12 12 0 0 1-4 7 44 44 0 0 1-10 4h-11a48 48 0 0 1-14 0h-18l-9 1-4-2-1 1h-3l-20 1h-35a37 37 0 0 1-11 0h-4a39 39 0 0 1-6 0h-12l-11-1h-5l-11-3-9-2-2-1-3-1a43 43 0 0 1-9-4l-2-2-2-1-1-3c-1-1-3-2-2-4 1-4 6-3 10-4a40 40 0 0 1 7 0h41a85 85 0 0 1 22 0h19l10-1 8 1 5-1a70 70 0 0 0 18 1l8-1 6 1 6-1h24Zm994 1 13 1h6l14 1 4-1a39 39 0 0 0 11 0 11 11 0 0 1 3 1l7-1 5 1a46 46 0 0 0 11-1l8 1h12c2 0 2 4 4 3 3 0 1-3 5-4h8c6-1 12 0 17 1 3 1 6 0 8 2l1 4 2 3-4 6c-4 4-11 8-17 9h-3l-7 1a9 9 0 0 1-3 1h-42a2112 2112 0 0 1-11 0l-9 1c-3 0-5-2-8-1a40 40 0 0 1-11 0h-13l-7-1a25 25 0 0 1-8 1h-5l-3-1a10 10 0 0 1-4 0l-2-1-2 1h-3l-11-1a146 146 0 0 1-36-10c-4-2-14-5-11-11a7 7 0 0 1 3-3c2-2 14-2 18-1a45 45 0 0 0 10 0h48l2-1Zm363 1c8 0 17 1 23 3l4 2c6 5 6 15-1 19s-22 4-33 4h-83a61 61 0 0 0-11 1l-9-1a23 23 0 0 1-6 0h-48a61 61 0 0 1-10-1 35 35 0 0 1-16-7c-2-2-1-4 0-7v-3a14 14 0 0 1 6-5 767 767 0 0 0 11-2l2 3h1l3-3h6l12-1a37 37 0 0 0 9 0h5l27-1 9 1h7a40 40 0 0 1 10-1h7l10 1h11l9-1 7 1 8-1h21Zm-685 8v2h1v-1l-1-1Z" />
</svg>