<svg xmlns="http://www.w3.org/2000/svg" viewBox="0 0 2000 2000">
  <path fill-rule="evenodd" fill="var(--text-color)"
    d="M1606 711c8-1 17 0 24 2l14 5h17l4 2 3-2h5c6 0 11-1 12 4a5 5 0 0 1-1 4c-3 4-16 1-22 3l-6 3-12 2h-20a47 47 0 0 1-13 0h-42l-13-1a90 90 0 0 1-10-3l-7-1c-7-2-19 2-20-5-1-3 1-5 3-6h48a58 58 0 0 0 9-3l11-3 12-1Zm-668 0h9l9 1h28l6-1 14 1 11 2 10 3 9 1h27c3 1 8 2 7 7-2 6-16 2-22 4l-15 5-17 1h-3l-43 1H828a51 51 0 0 0-15 0h-27l-18-1-3 1h-22a32 32 0 0 0-9 0h-28l-26-1-6-1-12-2-7-3c-5-1-18 1-20-3-3-4 1-9 6-8h10a37 37 0 0 0 11 0h6l16-5 14-2h10l6 1h18l18-1 3 1h4l1 1 5 1 3 2 6 2 1 2c1 2 3 5 6 5l-5-7-2-2-2-1a15 15 0 0 1-5-3h15l13-1 10 1h8a48 48 0 0 1 12 0h43l11-1 6 1h45l10-1Zm271 1a61 61 0 0 1 13 1l10 2 10 5 12 1a14 14 0 0 1 4-1c7 1 12-2 15 3 1 0 2 1 2 3-1 4-6 5-12 5h-5l-6 1c-4 2-8 4-13 4l-7 1h-35l-15-1-14-4c-5-1-16 1-19-2-2-3-1-8 2-9h24c5-1 7-3 11-5l6-1 2-1c4-2 9-1 13-2Zm-994 1h40a12 12 0 0 1 4 0h8a28 28 0 0 1 7 0h44l27 1h21a39 39 0 0 1 11 0h8a19 19 0 0 0 5 0h43a27 27 0 0 1 2 1h2a38 38 0 0 1 6-1l4 1a77 77 0 0 1 21 0h13l17 1h15c8 1 18 3 27 2 5-1 20-1 20 3 0 6-15 5-21 6l-14 4-5 1-3-1-3 1-21 1h-49a58 58 0 0 0-13 0h-54l-17-1-6 1-10-1-6 1-4-1a48 48 0 0 1-13 0l-9 1-16-1h-28l-23-1h-19l-3 1h-11a30 30 0 0 0-8 0l-14-1h-8l-19-1-12-4c-6-1-17 3-20-3-3-4 3-6 6-6a37 37 0 0 1 12 0h18l7-2h3l4-1c1 1 1 3 3 2a5 5 0 0 1 0-2c8-2 17 0 25-1h6Zm180 7h-4v1h7a3 3 0 0 0-3-1Zm6 1c0 1 2 2 3 1a5 5 0 0 0-3-1Zm379 6h1Zm813 21h35l13 1h29l11 2 10 3h24c4 0 9 2 8 6 0 4-4 6-9 5a12 12 0 0 0-4 0h-15l-16 5h-22a62 62 0 0 1-10 1h-45l-12-1-5 1h-54a52 52 0 0 1-8-1l-8-1-14-3c-6-1-14 1-16-3a5 5 0 0 1-1-4c2-4 6-4 11-4h15l9-3a99 99 0 0 1 13-3c9-2 19 1 28 0h13a36 36 0 0 0 6 0h6Zm-358 3 21 2 9 3 15 1h7c3 1 5 4 3 8-4 5-18 2-24 4-7 1-13 4-20 6h-72a86 86 0 0 1-16-5 31 31 0 0 0-7-2c-7-1-15 3-16-4-2-9 14-5 20-7l10-2 15-3a32 32 0 0 1 9 0h10l26-1h10Zm-1046 1h8a32 32 0 0 0 8 0h9l10 1h107a53 53 0 0 1 10 0h99a59 59 0 0 1 8 0h41a35 35 0 0 1 10 0h12a31 31 0 0 0 9 0l17 1 10 1a97 97 0 0 0 10 3c8 1 15-2 20 3 0 0 2 1 2 3-1 3-4 3-7 3a17 17 0 0 1-6 0c-2-1-9 0-11 1l-10 2-5 1h-11l-5 1h-8a53 53 0 0 1-14 0h-4a38 38 0 0 1-10 0H332a60 60 0 0 0-10 0H211a77 77 0 0 1-12 0h-17a39 39 0 0 1-10 0h-5l-13-1-18-3c-6-1-23 0-21-7 1-5 11-5 17-4h7l8-2c4-2 9-2 14-3h4a59 59 0 0 1 9 0h7Zm843 0h5l2 1 3-1 8 1 9 2 7 2 14 1a8 8 0 0 1 2 3 4 4 0 0 1 0 4c-3 5-13 2-19 3l-11 3-19 3h-6l-29 1-22 1h-41l-62-1h-55l-10 1h-21l-13-1h-57l-18-1h-36l-15-3-8-2c-6-2-18 2-20-5-1-9 15-6 22-7l12-3 11-1 19-1 7 1 6-1 12 1h5a53 53 0 0 1 7 0h74a46 46 0 0 1 12 0h21a258 258 0 0 0 27 0l20 1a46 46 0 0 0 12 0h34l7-1 4 1 17-1h33a32 32 0 0 1 9 0h26l11-1Zm14 14a3 3 0 0 0-1 1 1 1 0 0 0 1 1l2-2h-2Zm574 22h67l12 1 8 2 8 2 5 1h11l6 1a5 5 0 0 1 2 7c-2 3-8 1-13 2h-9a72 72 0 0 0-10 3l-5 2-12 2h-20a28 28 0 0 0-7 0 97 97 0 0 1-21 0h-9l-17-1-24 1h-63a53 53 0 0 1-8-1l-19-2-9-2c-3-1-6-2-10-1h-5c-5 0-11 0-12-5a5 5 0 0 1 1-3c2-4 3-2 8-3l21-1 12-3 11-2h6a53 53 0 0 1 14 0h81Zm-1390 2h87a52 52 0 0 1 14 0h16a57 57 0 0 0 16 0h5l10 1a54 54 0 0 1 14 0h127c9 2 18 5 28 6 5 1 19-1 18 6-1 6-17 2-24 3a16 16 0 0 1-5 1 16 16 0 0 0-5 0l-19 3-13 2H374l-48-1h-74a81 81 0 0 0-18 0h-36a67 67 0 0 1-21-1c-8-2-16-6-26-4h-5c-5 0-11 1-15-1-1-1-2-5-1-7 4-5 17-1 24-2l4-2a79 79 0 0 1 12-4h50a22 22 0 0 0 7 0Zm790 0c10 0 17 0 25 2l13 4c6 1 10-2 13 3a5 5 0 0 1 0 4c-2 7-16 3-24 4l-14 5-12 2h-39l-19-1H773a5 5 0 0 0-3 0h-78l-5-1-11 1h-7l-13-2-14-3c-7-2-20 2-21-6-2-8 15-5 21-6l13-4 15-1h8a42 42 0 0 1 12 0h7a31 31 0 0 0 8 0h99a32 32 0 0 0 9 0h64a45 45 0 0 1 7 0h36a57 57 0 0 0 12 0h42l13-1h30Zm161 2h22a70 70 0 0 1 18 0l14 1 10 1 11 1 10 2c8 1 21-3 24 4a4 4 0 0 1 0 3c-2 8-16 2-24 5l-16 4-18 3h-6a91 91 0 0 1-22 0l-14-1h-17l-8-2-3-1-11-3c-6-1-12 1-14-3a6 6 0 0 1-1-4c1-6 8-3 14-4l18-5 11-1Zm352 35c11 0 23 0 33 2h5l20 4h27l5-1 13-3 22-1h40l17 1 11 4h8c6 0 17-1 16 5-1 8-11 4-18 6-4 0-7 2-11 3l-17 3-19 1h-24c-11 0-22 1-31-2l-9-2-10-3h-21l-6 2-15 3-3-1-5 1-10 1h-4l-15 1h-16l-10-1h-7c-6-1-11-1-15-3-4-1-8-4-13-3h-6c-6-1-9 1-10-5a5 5 0 0 1 0-3c3-5 15-2 22-3l17-4 14-2h18Zm-1213 1 22 1h22l18 1 17 4c5 1 17-1 19 2a7 7 0 0 1 1 3v2a5 5 0 0 1-3 3h-3l-16 1a139 139 0 0 1-17 4h-7a43 43 0 0 1-11 0h-34a49 49 0 0 1-13 0h-4a46 46 0 0 1-8 0l-13-4c-7-2-24 1-26-4-1-4 1-6 4-7h15c8 1 14-2 19-3l8-2 10-1Zm908 2a148 148 0 0 1 29 3c6 1 11 4 19 3 6-1 16 1 12 7-3 6-15 2-22 5l-11 3-14 2h-4a36 36 0 0 1-11 0l-3-1-3 1h-30l-12-1a114 114 0 0 1-16-3 56 56 0 0 0-8-2c-7-1-17 3-18-4-2-10 14-6 21-8l12-3 14-1h39l6-1Zm-551 1h17a50 50 0 0 1 13 0h18a43 43 0 0 1 11 0l15 4c7 2 23-2 22 7a6 6 0 0 1-3 3c-4 3-12 1-18 2l-5 1-8 3-7 1-23 2h-10l-19-1h-19c-5-1-10-1-14-3l-6-2a70 70 0 0 0-9-2c-6-1-11 1-12-4a4 4 0 0 1 1-3c2-4 5-3 11-3a23 23 0 0 1 5 0c5 1 8-2 12-3l13-2Zm74 12a1 1 0 0 0-1 1l1 1v-2Zm807 25a55 55 0 0 1 17 2l8 3h16a48 48 0 0 0 8 0h18l14-3 12-2h27l9 1 13-1a63 63 0 0 1 17 0l11 2 11 3h16c4 1 7 0 8 3a5 5 0 0 1 1 3c-1 5-10 4-16 4h-3l-19 4-15 1h-7a53 53 0 0 1-9 0l-13 1-5-1h-35l-12-3-5-2h-29l-13 1h-7l-8 2-12 2h-5l-17 1-13 1h-26l-7-1h-4l-9-1-14-4c-7-1-20 2-19-7 2-7 20-3 28-4l16-3 13-1a52 52 0 0 1 14 0h11c8 0 17 1 25-1Zm-1191 0 20 2c6 2 12 5 20 4a16 16 0 0 1 5 0c3 1 10 1 8 6-3 7-14 2-21 4l-11 3-12 2-3-1-14 1h-52a128 128 0 0 1-18-4c-6-2-21 1-24-4-1-3 0-6 2-7h9c7 1 15-3 20-5h4a58 58 0 0 1 17 0h2a18 18 0 0 1 9 1l2-1a32 32 0 0 1 9 0h18l10-1Zm317 1h11a45 45 0 0 1 6 0l13 1h5l19 2 12 3c6 1 22-2 21 6-2 7-11 3-18 4l-10 2-12 3-8 1c-4 1-10 2-15 1h-13a61 61 0 0 1-11-1h-2a20 20 0 0 1-6 0l-21-1a84 84 0 0 1-16-4c-7-2-16 1-19-4a4 4 0 0 1 0-4c3-5 13-2 20-3l7-3c3-2 8-2 12-3h21Zm549 1c9 0 18 0 26 2l13 3c7 1 20-3 17 6l-1 3c-3 4-16 1-22 3l-6 2-12 2-5 1-20 1h-3a54 54 0 0 1-16 0h-21l-19-3c-4-1-8-3-13-3-6-2-15 1-16-5-1-9 15-6 22-7l9-2 13-2a40 40 0 0 1 11-1h43Zm54 11a1 1 0 0 0 0 1h1a1 1 0 0 0 0-1Zm258 23c6 0 12 0 17 2 4 1 7 3 11 3 5 1 12-1 16 1a5 5 0 0 1 2 8c-3 4-21 1-28 3l-12 3-19 2h-28a130 130 0 0 1-50-4l-6-2c-6-1-16 2-17-4-2-9 15-5 21-7l19-4h59a36 36 0 0 0 9 0Zm140 1h22l3 1 2-1h10a25 25 0 0 1 7 0l11 2c6 1 12 3 20 2 3 0 12 0 13 2l1 2v3c-2 4-16 3-22 4l-17 5h-14l-14 1-19-1-6 1-4-1-9 1-17-2-7-2-13-2c-6-1-15 2-17-4-2-9 11-5 17-6l13-4 11-1h5a36 36 0 0 1 9 0h7Zm-1318 1a103 103 0 0 1 26 4c4 0 7 3 11 2 4 0 14 1 15 3v6c-4 3-11 0-16 1l-11 3-15 3h-20l-3-1-11 1a46 46 0 0 1-12 0h-7l-20-1-8-2-6-3c-6-1-22 2-24-3-3-10 15-6 22-7l12-3 18-2h23a20 20 0 0 1 6 0h14Zm314 1 4 1 7-1a27 27 0 0 0 8 1 35 35 0 0 1 9 0h27l15 4c8 1 25-3 23 7-2 8-17 2-23 5l-3 2a59 59 0 0 1-10 3h-49l-7 1-19-1a116 116 0 0 1-22-5c-5-3-18 1-21-4-4-10 12-7 18-8l7-2a76 76 0 0 1 10-2 10 10 0 0 1 4 0h3l4 1 7-1 8-1Zm524 2h15a36 36 0 0 1 9 0h18l9 2 1 1h4l8 2c7 1 17-2 20 3a4 4 0 0 1 1 3c-1 5-7 6-14 5h-3l-9 2-5 1-16 3h-26a67 67 0 0 1-14 0h-11l-17-1a133 133 0 0 1-17-3c-7-2-19 1-22-4a5 5 0 0 1 0-5c2-5 12-3 17-3l14-4 15-2h23Zm464 35a83 83 0 0 1 14 1h13l14 1 5-1h13l11-1 9 1 14 4c5 2 14 0 19 2 2 1 4 1 4 4-1 6-7 6-13 5a23 23 0 0 0-10 1 137 137 0 0 1-17 4 55 55 0 0 1-7 1h-4a85 85 0 0 1-13 0h-48l-12-1-6-2h-3l-5-2c-7-2-18 2-20-4a5 5 0 0 1 0-3c1-5 7-2 12-3l19-6h6Zm-1360 1a83 83 0 0 1 13 0h9l7 1 19-1h11l10 1 19 3 7 2h10c2 0 5 2 5 5-1 5-9 3-14 4a37 37 0 0 0-6 2 57 57 0 0 1-11 2h-6a76 76 0 0 0-12 1h-8c-4 1-10 2-14 1h-12a39 39 0 0 1-11 0h-7l-14-1-12-4-11-1h-4a24 24 0 0 1-6 0c-4-1-7-1-7-5 0-7 7-4 13-5l10-1 8-2 6-2Zm368 0h54l4 1 15-1 8 1 11-1h13l4 1a50 50 0 0 1 13 0h15a37 37 0 0 0 10 0h14l18-1h6a25 25 0 0 0 9 1l6-1h10l25 1h18l5-1 9 1 4-1 9 1a23 23 0 0 0 6 0h6a40 40 0 0 1 12 1h20l11 4a56 56 0 0 0 14 0h7c6-1 16-1 14 6-1 8-15 3-22 5l-13 6a53 53 0 0 1-15 0h-12a44 44 0 0 1-12 0h-21a62 62 0 0 0-13 0l-7 1a49 49 0 0 1-13 0h-48a57 57 0 0 0-12 0h-15a36 36 0 0 1-10 0H716l-19-1h-30l-19-3c-3-1-5-3-8-3-7-2-15 1-19-3a3 3 0 0 1-1-3c1-8 10-4 17-5l8-2a97 97 0 0 1 13-4Zm856 0c6 0 11 0 15 2l11 3h17c2 1 5 5 3 8-3 5-18 2-25 3l-14 4-11 1-16 1-4-1a69 69 0 0 1-16 1l-13-1h-25a87 87 0 0 1-14-4l-10-2h-9a5 5 0 0 1-3-3 5 5 0 0 1 1-3c2-5 6-3 11-3l11-1 8-3 10-1h64Zm-322 2h29l12 1 8 1 11 3c7 1 23-2 21 7-2 7-18 3-25 5a113 113 0 0 1-20 5h-48c-16 0-30-1-41-4-6-2-19 1-22-3a6 6 0 0 1-1-4c2-7 13-4 20-5 9-1 15-5 24-6h23Zm466 35 15 1h28a86 86 0 0 1 12 1l15-1 15 2 10 4c7 1 27-4 25 6 0 3-3 3-7 4h-14l-12 2-15 3h-12a65 65 0 0 1-17 1h-3l-14-1-19 1-11-2h-3l-8-2-12-2c-3-1-6 1-9-1a5 5 0 0 1-3-6c2-5 7-2 13-3l15-5Zm-156 1a56 56 0 0 1 17 3l10 3c5 0 12-2 16 0 3 1 5 5 2 8-3 4-17 1-23 3l-20 5h-29a33 33 0 0 1-8 0h-27l-11-1-15-2-8-3c-7-1-19 3-20-5 0-8 18-4 25-6l11-3 10-1h52a48 48 0 0 0 13 0l5-1Zm-1152 1a83 83 0 0 1 15 1l8 1 7 3 11 1c5-1 12 2 9 7-2 4-15 2-19 4-10 4-20 5-34 5h-16l-16-1-4 1h-20a87 87 0 0 1-18-6c-7-2-22 3-24-5-2-7 15-5 20-6l19-4c2-1 3 1 5 1l3-1h35a17 17 0 0 0 5 0l8-1h6Zm841 1c10 0 23-1 32 1l11 1c6 1 11 3 17 3 8 2 18-2 22 3a4 4 0 0 1 1 4c-2 8-18 3-25 5l-16 5a41 41 0 0 1-10 0h-6l-9 1h-11a60 60 0 0 1-9 0l-10-1h-8l-3-1-2 1h-9l-15-3-3-1c-5-2-17 2-20-3a5 5 0 0 1-1-5c3-6 13-2 20-4l8-2a68 68 0 0 1 11-3l25-1Zm-281 0a37 37 0 0 0 11 1h29a49 49 0 0 0 8 0h17l8 1 11-1 11 2 9 2 14 1 10 1c1 1 3 3 2 5-1 8-12 4-19 5l-9 4-14 3-9-1a62 62 0 0 0-14 0h-8l-15 1a186 186 0 0 1-21 0h-52a78 78 0 0 1-20 0h-18a37 37 0 0 0-9 0h-16a53 53 0 0 0-12 0h-83l-14-1h-61l-8-1-14-4-17-1-4-1a6 6 0 0 1-3-4c-1-8 14-5 20-6l15-3 16-2h8a34 34 0 0 1 9 0h221a58 58 0 0 0 14 0l7-1Zm822 36 13 1 20 5 18 1c3 0 4 1 5 5a4 4 0 0 1 0 3c-4 4-18 1-23 3a139 139 0 0 1-16 4l-17 1h-45a93 93 0 0 1-15-1c-5-1-11-1-15-3l-7-2c-7-1-19 3-21-4-1-9 13-5 19-7a161 161 0 0 1 20-5h18a64 64 0 0 0 15 0h22l9-1Zm-295 2h17a33 33 0 0 0 5 0 78 78 0 0 1 21 0h16l11 3 8 2a17 17 0 0 0 6 0h4c5 1 11 0 12 4a4 4 0 0 1-1 3c-1 3-6 4-11 3h-6l-11 1-5 2-14 2h-5a34 34 0 0 1-10 0h-4l-4-1a2 2 0 0 1-1 1c-3 2-12 0-15 0h-8c-17 3-32-1-46-4l-11-1c-6 0-10 1-11-4-2-8 12-6 19-6 6 0 10-1 14-3l12-2h18Zm-1112 0h16a37 37 0 0 1 11 0h4l16 2 11 4 3-1c4 0 9 0 12 2 1 1 3 3 2 5-3 5-14 2-19 4-7 3-15 4-23 5l-22 1h-40l-10-1-13-4a39 39 0 0 0-7-2c-6-1-16 2-18-4-1-8 16-5 22-6l20-4h7l14-1h14Zm895 0 6 1 2 1 2-1 6 1 13 3c6 1 13-1 18 1 4 1 6 4 4 8-3 5-15 1-21 3a147 147 0 0 1-20 5l-22 1h-28l-17 1-6-1-16-4-11-2h-4c-5 1-8-1-9-5-1-8 15-5 21-6l17-5h15l4 1 3-1h31Zm-241 1a80 80 0 0 1 24 3l8 3h4c4 0 8 0 10 3v4l-2 3-9 1a32 32 0 0 0-9 0h-7l-12 4-12 2h-21l-13 1h-36a49 49 0 0 1-7 0H762a46 46 0 0 1-13 0h-63l-18-1c-6 0-12 0-17-2l-12-4-5-1-2-1a4 4 0 0 0-2 0h-3c-3 1-7 1-8-1a5 5 0 0 1-1-4 5 5 0 0 1 3-3c3-2 14-2 17 0l1-1 11-4 7-1a58 58 0 0 1 9 0h56l7-1 6 1h45l5-1 8 1h23a44 44 0 0 0 12 0h41l9-1h36l9 1h15v2h1a6 6 0 0 0 2 0v-2l13-1h14a40 40 0 0 0 8 0h19Zm-85 4v1-1Zm25 1v1a1 1 0 0 0 1 1l1-1a1 1 0 0 0-2-1Zm246 1v1a2 2 0 0 0 1 0v-1h-1Zm-327 6-2 3v1h1a4 4 0 0 0 2-4h-1Zm907 24 19 2 10 4c7 1 15-1 20 1a5 5 0 0 1 2 8c-3 3-17 1-22 2l-3 2-17 3h-20a28 28 0 0 1-7 0h-8l-4-1-3 1h-22l-4-1h-6a96 96 0 0 1-11-2c-4-2-9-2-14-3h-4c-5 0-10 1-11-4a6 6 0 0 1 1-3c2-4 6-2 11-3a69 69 0 0 0 8-1l21-4h42a50 50 0 0 0 13 0Zm-326 1h26l15 1 5-1 20 1 15 4c7 1 25-3 23 6a5 5 0 0 1-3 4h-7c-6 1-12 0-16 2a82 82 0 0 1-11 3l-11 1h-6l-4 1h-4a36 36 0 0 1-10 0l-12-1-4 1-7-1-12 1-15-2a105 105 0 0 1-13-3c-7-2-22 1-24-5-2-9 10-6 17-7l9-1 5-1 4-1h3l2-1 11-1h4Zm-225 1 21 1h17l19 3c7 1 23-3 21 7-2 6-11 3-18 4a34 34 0 0 0-7 1l-19 4-12 1-12-1h-43l-20-3c-6-2-20 1-23-4-3-3-1-5 1-6 5-2 12-2 18-2s10-2 15-4l11-1 7 1 7-1h17Zm-883 1 21 1h30l13 2 5 2 10 1a9 9 0 0 0 3 0c5-1 9 2 8 6-1 3-3 4-7 4-6-1-15 0-21 1l-7 2-6 1h-28l-17 1a51 51 0 0 1-14-1h-13l-18-4c-6-2-20 2-22-3-4-8 11-8 17-7 5 0 8-2 11-3l15-2h3l12-1Zm355 1h35l12 1a68 68 0 0 1 8 1c3 1 7 3 11 3h9c6 1 13 0 12 7-2 8-17 3-24 6a83 83 0 0 1-12 4h-72l-13-2-11-3c-6-2-18 1-21-3-1-2 0-4 1-5a6 6 0 0 1 3-2h14l20-5h3l8-1 13-1h4Zm1069 35h23l10 1a86 86 0 0 1 11 2l5 2h6c7 1 15-2 18 4a5 5 0 0 1 0 4c-2 3-6 4-10 3h-4l-7 1a97 97 0 0 1-15 4h-7a55 55 0 0 1-17 0l-12 1h-10c-18-1-37 0-51-5l-4-1c-7-2-18 2-19-5s13-5 18-6l18-4 14-1h5Zm-562 1 22 1h26l15 2 16 3c6 2 23-2 21 7a6 6 0 0 1-3 4h-8c-5 1-11 0-16 2l-22 4-11 1h-21a196 196 0 0 1-20 0l-16-1-15-4c-6-2-21 2-24-4a6 6 0 0 1 0-4c2-5 11-3 17-4h7l6-3a61 61 0 0 1 10-3l16-1Zm263 1h21l7 1 11 1 11 1 7 1h5c6 0 11-1 13 3a5 5 0 0 1 0 4c-3 4-8 2-13 3l-12 1-14 4-11 1h-5a67 67 0 0 1-18 0h-6l-17-1-5 1-18-1a59 59 0 0 1-12-2l-4-2c-7-3-25 3-26-5-2-10 17-5 24-6l13-4h49Zm-1087 0a110 110 0 0 1 26 2 59 59 0 0 1 7 2l2 1 2-1a11 11 0 0 1 5 1l3-1c4 0 10 4 7 8s-15 1-20 3a151 151 0 0 1-18 4h-7a53 53 0 0 1-15 0h-21a110 110 0 0 0-15 1h-11l-10-1c-4 0-7-2-10-3a60 60 0 0 0-9-2c-6-1-16 2-17-4a4 4 0 0 1 1-3c1-2 3-3 6-3l3 1a18 18 0 0 1 6-1 22 22 0 0 0 7 0l11-3 10-1 8 1 18-1h31Zm332 3 13 1a31 31 0 0 1 7 0h9l15 3 10 1c7 1 16-3 18 3a5 5 0 0 1 1 3c-2 8-16 3-23 5l-16 4-11 2h-5a52 52 0 0 1-12 0h-5a36 36 0 0 1-10-1l-10 1h-9l-6-1c-3-1-2-4-4-5l1 3a4 4 0 0 1-1 1h-7l-13-2-6-2-16-1c-2-1-5-5-3-8 3-3 15-1 21-2l17-3h3l2-1 4 1 8-1 5 1 14-2h9Zm-38 13v1-1Zm-343 22h35l16 1 15 1 16 4c5 1 20-2 19 6-1 3-4 4-7 4h-13l-7 2a126 126 0 0 1-22 3l-12 1h-34l-17 1-10-2-7-4-7-1c-7-1-16 2-18-3a5 5 0 0 1 0-3c2-4 6-4 11-4h3l11-1 14-4 9-1Zm1110 0h11l3 1 1-1h29l15 2 10 3c6 2 21-2 19 7-1 7-18 3-25 5l-22 4h-64l-23-4c-7-2-22 1-25-4a5 5 0 0 1 0-4c2-6 12-2 18-4l12-3 16-2h25Zm294 0h43a50 50 0 0 1 10 0h20l10 2 10 4c7 1 27-4 26 5-1 6-8 4-14 5l-8 1-5 1-10 3a52 52 0 0 1-18 0h-44l-3-1h-17l-8-1-8-3a27 27 0 0 0-9 0h-3a17 17 0 0 0-6 0c-4 0-9-2-7-6a5 5 0 0 1 1-2c3-2 4-2 9-2h4l14-5 8-1h5Zm-502 2h14a78 78 0 0 1 20 0l19 5c7 1 15-2 18 3a5 5 0 0 1 0 5c-4 5-17 1-24 3l-11 4-10 1h-8l-6 1-4-1c-4 1-11 2-16 1a52 52 0 0 0-8 0h-25a91 91 0 0 1-13-3l-3-1a84 84 0 0 0-10-2c-7-1-15 2-17-4-2-9 15-6 22-7l14-3 24-2h24Zm-557 1h31a59 59 0 0 1 9 1h33l15 4c6 1 23-3 22 6-2 10-15 4-24 6l-15 4-16 1h-14a63 63 0 0 1-17 0h-22l-15-2-3-1-13-3c-5-1-11 1-15-2a5 5 0 0 1-2-4c2-7 10-4 17-5h4l4-2 9-2 12-1Zm559 13-1 1a2 2 0 0 0 1 1 2 2 0 0 0 1 0h1l-1-1a2 2 0 0 0-1-1Zm564 22h7l14 1c4 0 8 0 11 2 3 1 7 3 12 2a27 27 0 0 1 7 1c4 0 9-1 11 3a5 5 0 0 1-1 4c-3 4-17 2-22 4l-16 4-10 1a63 63 0 0 1-17 0l-4 1h-10c-10 0-20 0-30-2h-5l-9-1-7-3a61 61 0 0 0-9-1h-4a21 21 0 0 1-6-1h-4a5 5 0 0 1-4-4 4 4 0 0 1 1-2c2-6 12-2 18-4l11-3 13-2h53Zm-379 0h34l27 1 17 4c6 1 22-2 21 6-1 5-6 5-12 5h-3l-11 2-9 3-14 2-9-1-10 1-5-1-17 1h-15c-8-1-17-1-24-3l-9-3c-7-3-21 2-23-5a4 4 0 0 1 0-3c3-6 10-3 17-4h7l9-2 11-2 12-1Zm-1075 1h43l5 1h3a73 73 0 0 1 11 3l5 2c4 1 17-1 18 2l1 2v4c-2 3-16 2-20 3a104 104 0 0 1-19 6h-20l-18-1h-4c-7-1-16 2-24 1a163 163 0 0 1-20-5 72 72 0 0 0-10-2c-6-1-12 1-15-3a4 4 0 0 1-1-3c1-4 6-4 11-4l5 1v1c3 0 4-2 5-2h5l18-4 13-1 8-1Zm423 2 15 1 7-1h21a41 41 0 0 1 11 0 35 35 0 0 0 9 0l16 1 8-1h7l16 1 5-1h23l2 1a48 48 0 0 1 13 0h8l17-1 12 1a41 41 0 0 0 11 0h59l11 3a28 28 0 0 0 4 2h25c6-1 15 0 14 7-1 6-14 2-20 4l-18 5-13 1a74 74 0 0 1-19 0h-10l-19 1H854a42 42 0 0 0-11 0H713l-36-1h-9l-19-2-13-4c-5-1-20 3-18-6 2-8 16-4 23-6l11-4 13-1 6 1a45 45 0 0 1 11 0h13l4-1h21l8 1a35 35 0 0 1 10-1h18Zm445 1h42l10 1a24 24 0 0 1 3 1h4c3 1 6 1 8 3l2-1 5 1 4-1 10 2a5 5 0 0 1 2 8c-3 3-18 1-23 3l-12 3-8 1h-13a43 43 0 0 1-12 0h-9a58 58 0 0 1-9 0h-25l-12-1-9-3c-5-2-18 0-21-4-1-2 1-5 2-6 4-3 9-2 16-2 5 0 9-2 14-3l10-2h21Zm-919 5-3 3h1a8 8 0 0 0 3-2v-1h-1Zm992 4-2 1 4 2a1 1 0 0 0 1-1 1 1 0 0 0 0-1l-3-1Zm-633 2-1 1h1v-1Zm-330 3a1 1 0 0 0 0 1h1v-1h-1Zm1494 20a73 73 0 0 1 21 3l10 3 17 1 4 1c2 1 4 4 2 7s-8 2-12 2h-3a27 27 0 0 1-5 0l-7 1-4 1-7 1-16 2h-38a41 41 0 0 1-11 0h-7l-12-1-4-2-9-2h-10c-5-1-10 0-10-5a4 4 0 0 1 0-2c2-4 6-2 12-3l5-2c15-5 35-5 55-5h21Zm-398 1h49a69 69 0 0 1 13 4l5 2c7 1 22-3 20 7 0 2-2 3-4 3h-4c-6 1-12-1-17 1a90 90 0 0 1-23 5l-14-1h-26l-11 1a68 68 0 0 1-23-1l-10-4c-7-2-17 1-21-4a4 4 0 0 1 0-4c2-4 9-2 15-3l10-3 15-3Zm-218 1h46l6 2h5l10 1 6 2 9 1 5-1 5 1c5-1 11-1 12 4a4 4 0 0 1 0 3c-3 4-5 2-10 3h-3c-9-1-13 2-18 4a89 89 0 0 1-12 2l-7 1h-14c-2 0-5 1-5-1 1-1 1-2-1-3h-1c-2 0-2 3-4 4h-24l-19-1-9-1-10-4c-7-1-16 1-19-3a4 4 0 0 1 0-4c1-5 8-4 14-4h8l9-4 8-1 7-1h6Zm-808 1 10 2 7 1 4 2c5 1 11-1 16 1 2 1 4 4 2 6-3 5-20 2-28 4l-8 2-12 3h-10a58 58 0 0 1-13 0h-17a53 53 0 0 1-10 0 62 62 0 0 0-8-1 10 10 0 0 1-3 1h-7l-9-3-11-3c-7-1-16 3-17-5 0-2 3-4 5-5h3a28 28 0 0 1 5 0h12l16-4h9c9-2 19 1 29-1a9 9 0 0 1 3 1l5-1 9 1 10-1h8Zm281 1 21 1h139a53 53 0 0 0 13 0h22a31 31 0 0 0 8 0h42a36 36 0 0 1 10 0h101l14-1 15 2 16 4c6 2 23-2 21 6-1 8-18 4-27 6l-26 4-20 1-13 1h-11a40 40 0 0 0-10-1l-20 1a65 65 0 0 1-15 0h-20l-16-1-16 1h-4a47 47 0 0 1-12 0l-11-1-6 1h-50l-11-1a50 50 0 0 0-13 1l-10-1h-78l-16-1h-13l-13-1-14-5c-7-1-21 3-22-4-2-10 11-5 17-6l18-4Zm209 9h-1v1a1 1 0 0 0 1-1Zm-528 26 14 1h9l15 5 6 1c4 1 15-2 18 1v2a5 5 0 0 1 1 3c-1 3-4 3-8 3h-14l-7 1c-4 0-7 2-11 3a74 74 0 0 1-24 3h-8l-13-2c-4-1-7-4-13-4-6-2-13 0-19-1-3 0-6 0-7-2l-1-5c2-3 8-3 14-3h3l11-3c5-2 12-1 18-2h12l4-1Zm870 2a42 42 0 0 1 10 1l4-1 16 2c5 1 10 4 16 4s22-2 21 5c-1 9-21 3-29 5-6 1-11 4-16 6l-14 2h-9l-15-3-9-3a81 81 0 0 0-9-2l-5 1-23-1a6 6 0 0 1-3-2 5 5 0 0 1 0-4c1-4 6-4 11-4h4c5 1 12-2 16-3l14-2 14-1h6Zm579 0h7a101 101 0 0 1 15 4l8 3 2 4 1-1 1-3a6 6 0 0 1 3 0l1 1c6-3 10 4 5 7-2 2-4 0-7 1h-7a33 33 0 0 0-10 0l-8 2-7 1-4 2-6 1-13 1-7-2h-8l-11-4c-6-2-23 3-26-3-1-3 0-6 2-6l3-1 9-1 11-4 13-2h23Zm-382 0a131 131 0 0 1 24 2l13 1c4 1 7 3 11 3l10 1c3 0 6 2 5 5-1 5-7 5-11 5h-3a17 17 0 0 1-5 0h-10l-9 3-5 1-6 1-7 1-7-1h-5l-10-2c-4 0-7-2-11-3-6-1-20 2-23-2a6 6 0 0 1 0-4c1-6 7-3 14-4l9-3 8-2 18-2Zm-733 1 29 1h70a41 41 0 0 0 11 0h34l13 1h37a43 43 0 0 0 12 0h30a52 52 0 0 0 14 0h12l11 1 7-1a41 41 0 0 0 12 0h36a63 63 0 0 1 17 0h12l14 4c7 2 14-2 18 3a5 5 0 0 1 1 4c-2 7-17 2-24 4l-10 3a113 113 0 0 1-13 3l-15 1a54 54 0 0 1-8 0h-11l-23-1h-54l-10 1-14-1h-80l-11 1-20-1-31 1h-45l-6-1-14-1-14-5h-11c-7-1-24 2-22-6 1-6 10-4 16-5 7-1 11-4 17-5Zm553 8v1a1 1 0 0 0 1 0v-1Z" />
</svg>